<?xml version="1.0" encoding="UTF-8"?> <svg xmlns="http://www.w3.org/2000/svg" id="Layer_1" data-name="Layer 1" viewBox="0 0 430 430"><g style="opacity:0.8"><path d="M166.52,30.41l-.52.28.34,0L154.92,47.9l-7.71,9-.36-.36.21.54-.15.17h0L136.46,71.08l-.29-.4.14.6-.09.11h.06l-5.9,18.65.09,0,5,6.23,6-2.13,0,.15.15-.22L142,94l-.19-.07,5.46-7.7L154.92,77l7.59-4.34,15.21-7.3L190.8,64l-.1.33,13.35-13.68v0l.2-.24.4-.41-.08,0,6.67-8h.09l-.25-7.64.14-.11-.09,0,6.75-15,.19,0-4.27-4-.18-.07-9.33.24-12.54,1.19h-.15l-.52.1-13,2.33Zm39.61-8.73,4.58,12.5-16.19-5.31Zm4.53,12.77L203,40.9v-.1l-.09.13-8.37-11.75Zm.15.24L211,41.8l-7.78-.74ZM168.28,56.28,181,41.91,193.5,53.82Zm-.36,0-12.54-8.22L180.56,42Zm25.39-2.15L177.69,65.07l-9.42-8.52Zm-12-12.56,12.87-12.44L202.66,41Zm-.36,0-14-10.9,26.85-1.56Zm.35.31,21.36-.53L193.8,53.72Zm-14.08-11.5L191.55,17,194,28.78Zm-.57.38,14,10.92-25.3,6.13ZM155.06,48.17l12.45,8.15-20,.68Zm12.57,8.43,0,0h.13L162.39,72.3l-14.85-15Zm-5.4,15.93-7.33,4.18-7.32-19Zm-15-15.1,7.42,19.26-17.92-5.45ZM135.53,96,131,90.27,141.14,94Zm-4.8-6.1,5.7-18,4.93,21.94Zm10.89,3.78-4.88-21.72L147,86.15Zm5.51-7.74L136.81,71.56,154.59,77ZM168,56.69l9.43,8.52-14.75,7.08Zm10.19,8.37,15.38-10.8-2.7,9.46Zm13.07-1.7L193.93,54l9.71-3.35Zm2.91-9.7,8.65-12.13L204,50.26ZM204.24,50l-1.16-8.71,7.83.74ZM211,34l-4.56-12.46,11.15-2.19Zm6.54-14.92-10.78,2.12,7-5.72Zm-13.18-3.4,9-.23-7.1,5.83-13.85-4.47Zm1.57,5.8-11.59,7.18L191.83,17Zm-15-4.46L167.41,29.92l10.78-10.6Z" style="fill:#414042"></path><path d="M211.69,71.12l.25-.19-17.67.54L193.67,85l.2-.15h23.84Zm-17.16.61,16.57-.5L194,84.43Zm16.94-.43,5.82,13.28H194.22Z" style="fill:#414042"></path><path d="M414.78,211.33v-.15l-1-16.87-1.66-10.93,0-.27,0-.19-3.35-17.77-4.3-14.6-2.49-6.93-.07-.21-.14-.31-8-18.13-12.38-21.22-.35-.52-8.43-11.12-8.17-10.22L364,81.3l-.16-.15L348.74,66.08l-12-9.92-.19-.15-.06,0-13-9.1-17.15-9.93,23.1,21.8-.05,0,0,0-11.78,6,2.8,16.85L308.64,63.16l0-.08L291.8,58.3l-6.49-5.64-13,7.06h-.1V70.82l-.38.25.26,0-8.32,12.87-.06,0,0,.13-.14.23.1,0-2.41,13.62-.35-.07.31.28,0,.11.13,0,11,9.93h0l16.91,9.11.12.19L296,102.73l.2,0-6.75-9.13.26-.23-.31,0-.31-11.85,18.15,15.46.82,14.45L292,123.84l-15.54-6.37.1.23-16.41,19.6-17.87,7.37-.06-.14-.12.22-.22.09.13.07-10.55,18.56h-.05v24.82l.2-.29,22.14,3,0-.13,13.92-19.65.12,0,0-.16,9.53-8.21L296,168l7.86-18.45,16.35,24.8h0l.08.1.15.23v0l13.27,18,6.07-33.15L365.59,161l8.25,11.18-15.11-2.75,0,.1-17.08,7.12.2.12,5.52,14.1,0,.09H366l-4.14,19.37L335,206.53l.16.16-14.82,7.52L292.6,202.6,290,188.24l-.16.12-36.49,7.12h0l-19.65,4.6-9.4,15.58-.17-.16.05.31L201,231.67l-.14.09.07.07-5.05,35.95.08,0,9.62,22-.07.07,22.06,10.9-.23.08.56.09.16.08v-.06l53.71,8.51,4.73,28.29h0l0,.16L269.63,373l0,0-.05.18-.17.35.09,0-5.23,19.31,21.36-7.25,0,.1.28-.18.23-.08-.05,0,22.12-14.85h0l.33-.23.21-.14h0l31.05-21.49h.06l7.58-18.13.17-.07-.07,0,19.61-19.59,17.75-15.84.16,0-5.13-17.34h0l-.08-.23-.1-.35v0l-9.17-26.84-3.25-27.62,7.14,19.74,5.66,26.22.08.34.13-.22,16.32,1.46-.05-.15,7.57-17.61.09-.19h-.11l-4.18-14.69-4.36-22.63,18,21.31.92-11,.3-13.56Zm-.29-.23-28.05-14.52,25.4-13.34,1.7,11.1Zm-28-14.2,27.74,14.37-18.8,2.94ZM390,252l-15.22-9.75L383,228Zm-6.66-24,16.3,9.59L390.24,252ZM372.8,292.13l-39.65,4.23,46.25-18.68Zm-81.47,70.21L286.84,338l29.82,5.55ZM287,337.78l33.21-26.22-3.32,31.78ZM241.14,231.94l-9.55,29.34-7.06-45,16.58,15.6-.05,0Zm-9.37,29.67L241.39,232l29.28,11.71Zm117.77-18.2,11.16,29.73L293,280.08l56.43-36.7v.12Zm-17.39,53L293,280.35l67.4-6.91Zm-37.76-62.87,54.83,9.64L292.63,280Zm.52-.19,53.44-13.72,1.09,23.3Zm0-.29,25.49-18.58,27.42,5Zm-1.13.37-22.46,10,21-40.25,1.75,30.09-.51.13Zm.32.16-1.75,46.17-21.14-36Zm-23,9.73-7.79-33.81h.06l28.88-6.62Zm-.24.17-29.28-11.71L263,209.71Zm.14.4L292.18,280l-60.25-18.2Zm21.63,36.83v-.13l27.44,30.48-38-2,10.42-28.55Zm24.57,62.46,3.32-31.71L347,330.34l-29.77,12.92,0-.12ZM293,280.63l38.63,15.89h0l.3.12-.53.43.36-.14L320.37,311Zm40,15.5,27.94-22.72,18.29,4Zm16.84-52.77,20.38,7-9.31,22.55Zm-1.19-23.71.27,0,0,0,17.87,1.87-17,21.23Zm.24-.27,13-8.71,4.87,10.59Zm18.39,1.93L386,197.05l-3,30.4-.11-.06,0,.06-15.63-6.09,0-.05Zm18.94-24.92-11.78-23.82,37.16,10.5-24.95,13.1,0,0Zm-.37-.13h0l.05.1-19.52-5.65,7.82-18Zm-3,31.49L374.57,242l-7.34-20.31Zm.38-.47,3-30.22,8.93,17.28Zm-8.59-54.93,18.32-5.7.1.12v-.05l18.32,16Zm33.8-7.13,3.29,17.45-18.55-16.22,8.54-22.59,2.43,6.78Zm-15.46,1-18.48-24.54.14,0-.06-.05,27,2Zm-127.47-8.14,1.9,12.73-18.17-7.26Zm48.74-32.85,20.83,9.47-31,14.3Zm.12-.25,11.23-20.77,9.59,30.23Zm32.18-7.92-20.62-13.18,16.71-6.7Zm-20.67-12.88,20.68,13.21-11.1,17Zm17-7,37.66,6.46-33.73,13.54ZM321.19,82.41l42.14-1L342.75,96.81ZM342.46,97l-16.72,6.71L321,82.59ZM314.2,124.73l-5.83-13.09,17-7.51Zm-.23.16-21.57-1,15.74-12.1Zm-21.86-.75,21.56,1L286.39,139.3Zm21.8,1.2-10.16,23.73-17.32-9.48Zm-27.76,14.42,17.28,9.45-37.31,8.42Zm-20.44,17.87-5.29-20.06,25.38,2.13Zm37-8-25.52,12.92-11.14-4.64Zm1.37-.37L335.18,135l-14.84,39.13L304,149.35l.16,0Zm31.54-14.68,11.13-17,26.94,23.7ZM347,117.39l33.9-13.61-6.82,37.43Zm54.49,25.92-27.16-2L381.17,104l12.33,21.14Zm-20.73-39.95L343.1,96.9l20.63-15.42,8.65,10.8ZM321,82.14,329.83,59l33.48,22.17Zm15.51-25.86,12.08,10,14.14,14.13-32.63-21.6,1.65-.65Zm-13.06-9.19,12.8,9L330,58.54l0,0-.24.12L308.33,38.36Zm6.09,12-8.69,22.69L318,65Zm-8.8,23.74,0,0,4.73,20.86-17.84-6.7,13.05-14.33Zm-29-24.22,13.42,10-32.3,2.13Zm15.76,38.06L305.7,69l14.86,13.26Zm12.6-15.15L305.87,68.82h.05l-.22-.16,2.79-5.21Zm-14.59-13-.12-.11v0l-13-9.65,15.86,4.49ZM285.27,53l6.12,5.31L273,59.67Zm-12.81,7L291.2,58.6l-18.74,12Zm32.63,8.88L288.92,81.12,272.76,71Zm-32.73,2.22,16.16,10.1-24.45,2.73ZM263.9,84.27l24.81,9.28-27.22,4.3Zm16.32,17.22L262.13,98l26.68-4.22Zm-.28.22-7.61,6-10.55-9.48Zm-7.37,6.18,7.65-6L289,116.73Zm16.77,8.89-8.83-15,15.18.93Zm6.27-14.35-15-.91,8.63-7.71ZM264.38,84.16l24.41-2.72.32,12Zm24.79-2.89L305.42,69l1.79,27.69L289.26,81.39h.08Zm36.11,22.58-17,7.51-.8-14.18Zm-33.44,20.23-5.71,15.14L277,118ZM276.68,118l9.24,21.44-25.41-2.13ZM260.14,137.6l5.28,20-22.91-12.74Zm5.15,20.25-16.35,5.5-6.49-18.2Zm-23.12-12.66,6.49,18.2-16.88.08Zm-10.49,18.55,16.9-.07-16.9,23.75Zm.11,24,17-23.87,4.64,26.77Zm21.87,2.71L249,163.75l18.35,7.33Zm14-19.71-1.88-12.61,0,0v0l11.06,4.6,0,0,.1,0Zm28.13-3.08-18.2-5,25.92-13.11ZM333.52,192l-12.95-17.62,18.87-14.67ZM320.68,174l14.69-38.76,4.12,24.14Zm19.08-14.69L335.63,135l29.63,25.65Zm-3.87-24.37,38.1,6.67-8.38,19Zm38.33,6.83,18.48,24.54-26.84-5.53Zm18.25,24.78-18.24,5.67-.08-.16,0,.05-8.14-11ZM374,172.46l-7.78,18-7-20.66Zm-15.11-2.69,7.06,20.72L342.3,176.67Zm-11.22,20.89L342.26,177l23.39,13.69Zm18.64.31,19.52,5.65-23.64,13.57Zm19.33,6.08L367,221.16l-4.9-10.63Zm-24,13.5L348.5,219.3l-12.68-12.38Zm-26.18-3.66,12.66,12.37-27.26-5ZM320,214.44l-25.65,18.7-1.75-30.23,27.42,11.47-.1.05ZM292.32,202.6l-28.64,6.55,26.12-20.41Zm-3-13.86L263.2,209.19v0l-.06.06-9.32-13.54Zm-35.83,7,9.25,13.45-28.46-9Zm-19.67,4.63,28.67,9-37.92,6.3Zm28.75,9.29-.06,0,.15,0-21.39,22L224.63,216Zm-38.37,6.47,7.11,45.36L201.29,231.8Zm-23.06,15.95,30.08,29.71-35.05,5.66Zm-4.93,35.65,34.93-5.65L205.78,289.5Zm35.13-5.46-3.55,38.25L206,289.71Zm.3-.21L292,280.27l-63.92,20.26Zm60.58,18.44L281.8,309.12l-53.26-8.44ZM320,311.37,286.77,337.6l-4.71-28.18ZM286.61,338.3l4.47,24.2L270,372.87Zm-22,54,5.11-18.91,15.74,11.84Zm5.29-19.12L291,362.83,285.71,385ZM286,385l5.32-22.2,16.79,7.36Zm5.5-22.42,25.22-18.68-8.41,26.05Zm17.15,7.21,8.43-26.09,22.28,4.84Zm31-21.48-22.18-4.82L347,330.63Zm-19-37,.14-.12h-.1l11.49-14.27,14.8,33.1Zm26.7,18.88-14.87-33.27,34.31,13.85Zm19.6-19.66-34.17-13.79,40-4.26Zm.37-.26L373,292.42l11.52,2.43Zm5.81-18,6.55-14.35,5,16.78Zm-12-19,9.29-22.53,9.09,26.6ZM349.9,243.09l.06,0-.12,0,17.06-21.27L370.22,250Zm24.85-.5L390,252.36l-9.73,15.8Zm5.69,25.82,9.72-15.77,6,17.17Zm16,1.18-6-17.14h13.41Zm7.4-17.41H390.44l9.3-14.33Zm-20.54-24.53,12-13,4.36,22.59Zm30.91-2.55-.86,10.38-17.74-21,18.91-3Z" style="fill:#414042"></path><path d="M243.09,138.54l14.16-3.14V124.18l.22,0-15.78-20.42,0-.19-13,10.31L245,121Zm2.11-17.25,11.66,13.92-13.45,3ZM257,134.91l-11.49-13.72L257,124.11Zm-.21-11.14-11.55-2.93-3.39-16.41Zm-27.56-9.91,12.27-9.74,3.44,16.6Z" style="fill:#414042"></path><path d="M232.15,137.46l7.22-9.54-6.71-8.75V119l-16,8.13,15.49,10.55Zm6.87-9.54L232.16,137l.49-17.38Zm-21.83-.77,15.19-7.7-.5,17.71Z" style="fill:#414042"></path><path d="M290.94,43.79l.16.13v-.05l22.2,9.54L293,38.18v0l-19.7-9.41.23.39C273.6,29.27,284.47,38.38,290.94,43.79Zm20.35,8.45L291.2,43.61l1.69-5.16ZM292.65,38.3,291,43.45c-5.06-4.24-13.83-11.59-16.46-13.82Z" style="fill:#414042"></path><path d="M250.71,37.78l-5.78-5.44,0,0-13.62-3.53,9.74,9Zm-9.37-.27,3.52-4.86L250,37.51Zm3.27-5-3.56,4.91-8.77-8.11Z" style="fill:#414042"></path><path d="M239.63,28.41l4.91-1.94-11.09-3.38Zm.05-.31-5.05-4.36,9.07,2.77Z" style="fill:#414042"></path><path d="M255.32,22.71l-11.16-3.65-11-1.1-.05.27,10.58,3.14Zm-11.45-1.59.36-1.75,8.41,2.75Zm.08-1.81-.35,1.74-9-2.67Z" style="fill:#414042"></path><path d="M190.28,213.38l-.12-.12-2.83,7,13.59,4.45-.28-.29,8.89-7.95Zm-2.58,6.74,2.55-6.36L200,224.14Zm2.89-6.41,18.32,3-8.45,7.57Z" style="fill:#414042"></path><path d="M353,345.18,330,362.34v0l-14.58,15.45,15.72-10,.09,0v0l22-22.25Zm-35.91,31.13,12.69-13.45,1.07,4.67Zm14-9L330,362.64l21.69-16.15Z" style="fill:#414042"></path><path d="M344.14,197.44l-15.21-.67,9.43,5.62ZM330,197.09l13.42.6-5.1,4.36Z" style="fill:#414042"></path><path d="M304.83,178.75l0-.13-4.63,3.82,7.56,8.41-.11-.45,9.93-9.05Zm-4.26,3.72,4.06-3.36,2.58,10.75ZM304.9,179,317,181.51l-9.41,8.58Z" style="fill:#414042"></path><path d="M162.21,29.45v-.14l8.41-5.46-8.9.64v0L157,26.82l0,0-5.5,5.25L162,29.38Zm-9.81,2.08,4.6-4.4,4.64,2.07ZM157.3,27l4.42-2.13.19,4.19Zm12.26-2.76L162.18,29,162,24.75Z" style="fill:#414042"></path><path d="M137,37.42v0c-1.22,1.07-8,4.24-8.11,4.27l-.47.22.32,0L126,47.81l-3.57,4.88,0,0-.08.2L107.76,66.91l-9.39,3.87,2.83,14,7-5.29v.16l.23-.33.11-.09,0,0,8.73-13H127l-.19-7.6,8.85-7.62v.21l.24-.42.44-.39-.27.08,4-7.15,7.23-9-.74.51Zm.22.23,8.66-2.36-10,6.76Zm-.37.26-1.31,4.33-6.07-.48A75.77,75.77,0,0,0,136.8,37.91ZM129,42l6.16.49-8.68,5.06Zm6.13.83-6.75,9.56-2-4.45Zm-9,5.33,2,4.38-5.38.23Zm1.93,4.66-.06.08.14,0-1.54,5.33-3.86-5.14Zm-6,.66-5,12.4-8.82,1ZM101.38,84.24l-2.64-13,9.34,8ZM98.79,70.9l8.92-3.67.44,11.63Zm9.64,7.84L108,67.15l8.89-1ZM122.51,53.2l4,5.27-9,7.11Zm4.2,12.67h-9.16l8.86-7v0l.13-.11Zm.21-7.78,1.52-5.29h.11l0,0,6.7-1.84Zm1.75-5.66,6.79-9.62.18,7.71Zm7.06-9.88,4,.73-3.81,6.84Zm4.15.48L136,42.31l10-6.74Z" style="fill:#414042"></path><path d="M100.84,143.13h.29l-8.3-8.59,0-.19-11.41,4.34.24.11,4,10.25-.24.33Zm-14.62,5.63,4.11-5.59,0,0,0-.06h9.71Zm14.26-5.91h-10l2.27-8Zm-8-8-2.26,8-8-4.07ZM82.07,139l8,4-4.22,5.75Z" style="fill:#414042"></path><path d="M25.37,230.71h.29l5.76-30.77,5.19-15.38,10.64-23.34,20-8.22.06.07L79.51,132.7l19-2.86.18.12-.82-22.43h0l0-.33v-.13h0L96.67,90.62h0l-5-13L79.33,91.31,60.38,107.12,62.05,98l8.36-13.39L85,73l.16,0,0-.1,16.82-9.76,0,.2.35-.37.26-.15-.09,0,19.12-20.13L132.59,39V39l.17-.14.41-.14-.18,0,13.4-11.15-8,3.19-6.63,2.77h0l-5.8,3h0l-.83.42h0l-8.93,4.63-6,3.68h0l-7.28,5.07L90.66,59.14l-.09.07L82.4,66.16,77,71.23l-.56.53-.2.21L67.72,80.8l-4.63,5.32-.28.32-.26.33-4.86,6.28-6.84,9.2-.32.48-3.86,5.9-4.59,7.74-.36.61-.1.19L33,134.53l-6.93,18.29L26,153l-.19.68-3,10.35-2.07,8.83,0,.22-3.5,22.21-.72,18.61.17.46ZM16.73,214,21.53,197l3.77,33Zm5-17.44L31.13,200l-5.57,29.78Zm9.45,3.21-9.33-3.46L36.21,184.9Zm5.31-15.6-10.15-30.9,20.59,8-.13.21.06,0Zm22.14-42.38,20.43-8.88L67.25,152.59Zm20.47-9.2-20.48,8.9,5.08-18.21Zm-15-9.37,24.25.49-9,8.73Zm24.56.11L76.82,107.61l20.65-.25ZM76.54,107.7l11.9,15.7-24.52-.5Zm-12.83,15-3.36-15.11h15.9Zm-3.63-15,3.37,15.15L42.2,117Zm3.33,15.63-5.07,18.22L38.8,136.86Zm-5.19,18.48-11,19-8.54-23.67Zm-10.75,19,11-18.89L67,152.77Zm32.36-28.46,8.88-8.62,0,0,0-.05,9.37,5.88Zm9.08-8.88,8.68-15.77.79,21.72Zm-12.2-16.16,2.81-15.65,17.82,15.41Zm20.84-.43L79.77,91.53l16.62-.9ZM91.63,78.14l4.69,12.22-16.57.9ZM79.22,91.76l-2.79,15.58H60.55Zm6-19.26,5.54-13,11,3.42ZM120.78,43,102.4,62.36l3-11.52Zm-10.46,2.46,10-2.51-14.38,7.3ZM138.49,31l6.4-2.55L132.8,38.5l-.74-4.81Zm-6.69,2.81.73,4.77-6.64-1.75ZM125.56,37l6.66,1.75L121.8,42.26Zm-.5.23-3.68,5.12-4.41-1Zm-8.47,4.36,4.24.92L111.09,45Zm-13.53,8.9,6.24-4.34-4.12,4.45L93.11,57.71Zm2,.51-3,11.64L91,59.25ZM90.33,59.78,84.94,72.45l-2.28-6.14Zm-7.9,6.73,2.3,6.15-7.88-.9Zm2.16,6.42L70.71,84l5.91-12ZM67.92,81,76,72.59,70.21,84.37l-6.89,1.9ZM70,84.71,62.1,97.36,63,86.64ZM57.91,93.22,62.74,87l-1,10.83-10.5,4.3Zm3.82,4.92-1.66,9.12-8.86-4.81ZM46.91,108.77l4-6.16,9,4.86-17.69,9.26Zm16.36,14.3L38.61,136.65l3.32-19.39Zm-30,11.57L41.53,118l-3.24,18.88L26.6,152.16Zm5.14,2.56,8.54,23.67-20.56-7.94ZM23.06,164.09l3.09-10.63,10.07,30.68L21,173Zm13.2,20.42L21.72,196,21,173.36Zm-18.82,10.8,3.28-20.78.73,21.72-.14.11.11,0-4.66,16.43Z" style="fill:#414042"></path><path d="M27.25,237.68l-.23-.3V247l9.85,3.28-.23-.29,2.93-7.33Zm.05,9.14V238.2l8.8,11.56Zm.27-8.71,11.65,4.73-2.77,6.91Z" style="fill:#414042"></path><path d="M51,253.36l0-.07-8.23-3.08-.1-.18L38.5,258l9.32,1.85,0,.11.26-.07.26.05-.06-.11,5.86-1.62Zm-12.1,4.39,3.81-7.14,5,8.89ZM43,250.58l7.65,2.87L48,259.39Zm7.86,3.08L53.65,258l-5.38,1.49Z" style="fill:#414042"></path><path d="M144.94,377l6.64-11.57-.16,0L146,352.79,144,330.45l.15-.08-20.87-11.15v-.05H104.93l-4.38-10.34.17,0-.26-.19-.07-.17-.06.07L84.45,297.15l0,0L63.14,286.32,51.74,274l-9,6.46,0-.08-.14.2-.22.15.09,0-4.06,5.68v-.12l-.12.25-7.66-11.92-2.81-15,0,0-9-14.46,1.75,10.7,2.77,11.34.12.5.1.33L26,276l2.77,7.46h0l.29.76v0l4.57,11.56,5.46,10.71.15.3.15.26,8.8,15.27,9,12.69.08.11,9.92,12.07,8.14,8.35.1.09L88,367.06l12.87,10,.11.08L112.57,385l12,6.62.11.06,22.63,9.83,22.39,6.7,15.68,3.25,20.21,2L154.08,393.2Zm8.68,16.12L124.9,391.4l1.21-23.15,18.57,8.88,9,15.91-.29-.12Zm-55-36.49,27,11.37-24.51,8.81Zm-59.2-50.37-.94-19.22.18.06v0l7,2Zm-.3-.42-5.18-10.14,4.28-8.34ZM46,289.13,62.9,286.6,60,312.77Zm14.2,24.35L80.5,331.57l-23,3.25Zm20.85,18.29h.07l-.07-.07,23.6-12.14-6.3,36.54Zm17.11,24.52-22.53-.92L80.88,332Zm27.66,11.53-27.08-11.4,25.44-15.65Zm-1.37-27,21.2,12.06L126.1,367.77ZM98.63,356.16l6.3-36.55L124.1,340.5Zm46.1,20.69-18.24-8.72,24.59-2.34Zm6.4-11.34-24.68,2.34L145.85,353Zm-5.38-12.94-21.15-12,19.12-9.94Zm-2.21-22.2-19.1,9.94-1.16-20.77ZM123,319.44l1.16,20.71-19-20.71Zm-18.37-.17-23.25,12L100.31,309l4.32,10.2h-.1Zm-23.8,12.17-.07-.11,0,.07-20.3-18.1L100,308.89ZM100,308.61,60.66,313,84.2,297.31Zm-39.7,4.31,2.89-26.27,20.76,10.51ZM51.7,274.41l10.92,11.76L43,280.66Zm10.7,12-16.52,2.48L43,280.92ZM42.69,281l2.87,7.81-7-2ZM19.38,246.55l8.16,13.15-3.84,7.63-2.8-11.45Zm8.26,13.57,2.66,14.19-6.48-6.61ZM29,283.18l-2.69-7.24L24,268.23l6.42,6.55Zm1.62-8.07L38,286.61l-8.8-3Zm-1.33,8.83,8.83,3h0l-4.33,8.43Zm16.55,5.41L59.8,313l-20.23-6.32Zm2.63,32.83L39.69,307,60,313.3l-2.74,21.32ZM67.37,347l-9.8-11.92,22.9-3.24-.21.26.36-.19-5.23,23.3Zm20.78,19.84L75.84,355.66l22.44.91,0,.15.07-.05,2.47,20Zm13.13,10.22,24.55-8.83-1.2,23.06-11.92-6.54Zm46.16,24.17-21.91-9.52,28.4,1.72,14.85,14.23ZM203.68,413l-18.22-1.81-16.1-3.34-14.77-14.15Z" style="fill:#414042"></path><path d="M231.3,119.22a1.22,1.22,0,1,1,1.22,1.22A1.23,1.23,0,0,1,231.3,119.22Z" style="fill:#414042"></path><circle cx="229.02" cy="113.85" r="1.22" style="fill:#414042"></circle><circle cx="241.56" cy="103.96" r="1.22" style="fill:#414042"></circle><circle cx="257.11" cy="124.05" r="1.22" style="fill:#414042"></circle><path d="M243.9,121a1.23,1.23,0,1,1,1.23,1.23A1.23,1.23,0,0,1,243.9,121Z" style="fill:#414042"></path><circle cx="243.29" cy="138.31" r="1.22" style="fill:#414042"></circle><circle cx="257.05" cy="135.2" r="1.22" style="fill:#414042"></circle><circle cx="239.19" cy="127.92" r="1.22" style="fill:#414042"></circle><circle cx="232.01" cy="137.29" r="1.22" style="fill:#414042"></circle><circle cx="217.02" cy="127.09" r="1.22" style="fill:#414042"></circle><circle cx="217.5" cy="84.72" r="1.22" style="fill:#414042"></circle><circle cx="211.44" cy="71.08" r="1.22" style="fill:#414042"></circle><circle cx="241.17" cy="37.64" r="0.99" style="fill:#414042"></circle><circle cx="250.36" cy="37.64" r="0.99" style="fill:#414042"></circle><circle cx="244.84" cy="32.44" r="0.99" style="fill:#414042"></circle><circle cx="232.01" cy="29.06" r="0.99" style="fill:#414042"></circle><circle cx="122.56" cy="52.93" r="0.99" style="fill:#414042"></circle><circle cx="128.34" cy="52.67" r="0.99" style="fill:#414042"></circle><circle cx="135.78" cy="50.63" r="0.99" style="fill:#414042"></circle><circle cx="126.66" cy="58.49" r="0.99" style="fill:#414042"></circle><path d="M125.87,65.94a1,1,0,0,1,2,0,1,1,0,1,1-2,0Z" style="fill:#414042"></path><circle cx="117.15" cy="66.01" r="0.99" style="fill:#414042"></circle><circle cx="107.88" cy="67.03" r="0.99" style="fill:#414042"></circle><circle cx="108.3" cy="79.04" r="0.99" style="fill:#414042"></circle><path d="M100.31,84.48a1,1,0,1,1,1,1A1,1,0,0,1,100.31,84.48Z" style="fill:#414042"></path><circle cx="98.69" cy="70.97" r="0.99" style="fill:#414042"></circle><path d="M125.17,47.84a1,1,0,1,1,1,1A1,1,0,0,1,125.17,47.84Z" style="fill:#414042"></path><circle cx="128.89" cy="41.86" r="0.99" style="fill:#414042"></circle><path d="M134.6,42.32a1,1,0,1,1,1,1A1,1,0,0,1,134.6,42.32Z" style="fill:#414042"></path><path d="M139,43.18a1,1,0,1,1,1,1A1,1,0,0,1,139,43.18Z" style="fill:#414042"></path><path d="M136.09,37.63a1,1,0,1,1,2,0,1,1,0,0,1-2,0Z" style="fill:#414042"></path><path d="M145.38,35a1,1,0,1,1,1,1A1,1,0,0,1,145.38,35Z" style="fill:#414042"></path><circle cx="152.05" cy="31.69" r="0.99" style="fill:#414042"></circle><path d="M161.07,29.24a1,1,0,1,1,1,1A1,1,0,0,1,161.07,29.24Z" style="fill:#414042"></path><path d="M156,27a1,1,0,1,1,1,1A1,1,0,0,1,156,27Z" style="fill:#414042"></path><path d="M160.87,24.67a1,1,0,1,1,1,1A1,1,0,0,1,160.87,24.67Z" style="fill:#414042"></path><path d="M169,24a1,1,0,1,1,1,1A1,1,0,0,1,169,24Z" style="fill:#414042"></path><circle cx="239.7" cy="28.26" r="0.99" style="fill:#414042"></circle><circle cx="244.03" cy="26.5" r="0.99" style="fill:#414042"></circle><circle cx="105.27" cy="50.74" r="0.99" style="fill:#414042"></circle><circle cx="121.44" cy="42.53" r="0.99" style="fill:#414042"></circle><path d="M131.6,38.66a1,1,0,1,1,1,1A1,1,0,0,1,131.6,38.66Z" style="fill:#414042"></path><circle cx="145.43" cy="28.12" r="0.99" style="fill:#414042"></circle><path d="M243.57,19.19a.52.52,0,0,1,.53-.52.52.52,0,1,1,0,1A.52.52,0,0,1,243.57,19.19Z" style="fill:#414042"></path><path d="M243.21,21.24a.53.53,0,1,1,1,0,.53.53,0,0,1-1,0Z" style="fill:#414042"></path><path d="M254.32,22.59a.52.52,0,1,1,.52.52A.52.52,0,0,1,254.32,22.59Z" style="fill:#414042"></path><path d="M232.65,18.1a.53.53,0,0,1,.53-.53.52.52,0,0,1,.52.53.52.52,0,0,1-.52.52A.52.52,0,0,1,232.65,18.1Z" style="fill:#414042"></path><path d="M233.05,23.41a1,1,0,1,1,1,1A1,1,0,0,1,233.05,23.41Z" style="fill:#414042"></path><path d="M192.69,84.65a1.22,1.22,0,1,1,1.22,1.23A1.22,1.22,0,0,1,192.69,84.65Z" style="fill:#414042"></path><path d="M99.59,143a1.22,1.22,0,1,1,1.22,1.22A1.22,1.22,0,0,1,99.59,143Z" style="fill:#414042"></path><path d="M91.45,134.58a1.22,1.22,0,1,1,1.22,1.22A1.23,1.23,0,0,1,91.45,134.58Z" style="fill:#414042"></path><path d="M89.12,143a1.22,1.22,0,1,1,2.44,0,1.22,1.22,0,1,1-2.44,0Z" style="fill:#414042"></path><circle cx="85.82" cy="149.07" r="1.22" style="fill:#414042"></circle><path d="M80.69,138.78A1.22,1.22,0,1,1,81.91,140,1.22,1.22,0,0,1,80.69,138.78Z" style="fill:#414042"></path><circle cx="61.92" cy="97.92" r="1.22" style="fill:#414042"></circle><circle cx="70.38" cy="84.48" r="1.22" style="fill:#414042"></circle><path d="M83.71,72.83a1.23,1.23,0,1,1,1.22,1.22A1.23,1.23,0,0,1,83.71,72.83Z" style="fill:#414042"></path><path d="M100.92,62.85a1.22,1.22,0,1,1,1.22,1.22A1.22,1.22,0,0,1,100.92,62.85Z" style="fill:#414042"></path><path d="M193.22,71.64a1.22,1.22,0,0,1,2.44,0,1.22,1.22,0,0,1-2.44,0Z" style="fill:#414042"></path><circle cx="242.29" cy="144.86" r="1.58" style="fill:#414042"></circle><circle cx="248.85" cy="163.57" r="1.58" style="fill:#414042"></circle><circle cx="231.54" cy="163.57" r="1.58" style="fill:#414042"></circle><circle cx="231.65" cy="187.86" r="1.58" style="fill:#414042"></circle><circle cx="253.58" cy="190.7" r="1.58" transform="translate(34.97 420.65) rotate(-83.39)" style="fill:#414042"></circle><path d="M266,171a1.58,1.58,0,1,1,1.58,1.58A1.58,1.58,0,0,1,266,171Z" style="fill:#414042"></path><circle cx="265.63" cy="157.88" r="3.13" style="fill:#414042"></circle><circle cx="277.23" cy="162.73" r="1.58" style="fill:#414042"></circle><circle cx="260.29" cy="137.41" r="1.58" style="fill:#414042"></circle><circle cx="276.72" cy="117.73" r="1.58" style="fill:#414042"></circle><path d="M284.62,139.59a1.59,1.59,0,1,1,1.58,1.58A1.58,1.58,0,0,1,284.62,139.59Z" style="fill:#414042"></path><circle cx="303.82" cy="149.32" r="1.58" style="fill:#414042"></circle><circle cx="314.12" cy="125.04" r="1.58" style="fill:#414042"></circle><circle cx="335.43" cy="134.69" r="1.58" style="fill:#414042"></circle><path d="M306.61,111.57a1.58,1.58,0,1,1,1.58,1.58A1.58,1.58,0,0,1,306.61,111.57Z" style="fill:#414042"></path><circle cx="325.64" cy="103.9" r="3.86" style="fill:#414042"></circle><circle cx="295.9" cy="167.74" r="1.58" style="fill:#414042"></circle><circle cx="292.02" cy="124" r="1.58" style="fill:#414042"></circle><circle cx="320.38" cy="174.39" r="1.58" style="fill:#414042"></circle><circle cx="333.6" cy="192.37" r="1.58" style="fill:#414042"></circle><path d="M338.06,159.41a1.58,1.58,0,1,1,1.58,1.58A1.58,1.58,0,0,1,338.06,159.41Z" style="fill:#414042"></path><circle cx="289.35" cy="117.08" r="1.58" style="fill:#414042"></circle><circle cx="295.9" cy="102.69" r="1.58" style="fill:#414042"></circle><circle cx="280.26" cy="101.64" r="1.58" style="fill:#414042"></circle><path d="M287.7,93.67a1.59,1.59,0,1,1,1.58,1.58A1.58,1.58,0,0,1,287.7,93.67Z" style="fill:#414042"></path><path d="M262.32,84.13a1.58,1.58,0,1,1,1.58,1.58A1.59,1.59,0,0,1,262.32,84.13Z" style="fill:#414042"></path><circle cx="288.93" cy="81.43" r="1.58" style="fill:#414042"></circle><circle cx="272.32" cy="70.9" r="1.58" style="fill:#414042"></circle><circle cx="291.66" cy="58.42" r="1.58" style="fill:#414042"></circle><circle cx="285.24" cy="52.83" r="1.58" style="fill:#414042"></circle><circle cx="272.44" cy="59.86" r="1.58" style="fill:#414042"></circle><circle cx="261.47" cy="98.09" r="1.58" style="fill:#414042"></circle><circle cx="272.32" cy="107.91" r="1.58" style="fill:#414042"></circle><circle cx="320.75" cy="82.28" r="1.58" style="fill:#414042"></circle><circle cx="342.76" cy="96.98" r="1.58" style="fill:#414042"></circle><circle cx="346.76" cy="117.34" r="1.58" style="fill:#414042"></circle><circle cx="374.19" cy="141.5" r="2.47" style="fill:#414042"></circle><circle cx="365.56" cy="160.82" r="1.58" style="fill:#414042"></circle><circle cx="392.9" cy="166.47" r="1.58" transform="translate(224.3 558.46) rotate(-89.69)" style="fill:#414042"></circle><circle cx="386.06" cy="196.67" r="3.89" transform="translate(109.55 530.24) rotate(-77.34)" style="fill:#414042"></circle><circle cx="395.35" cy="214.37" r="1.58" style="fill:#414042"></circle><path d="M411.84,235.74a1.58,1.58,0,1,1,1.58,1.58A1.58,1.58,0,0,1,411.84,235.74Z" style="fill:#414042"></path><circle cx="399.76" cy="237.55" r="1.58" style="fill:#414042"></circle><circle cx="403.87" cy="252.32" r="1.58" style="fill:#414042"></circle><circle cx="396.39" cy="269.88" r="1.58" style="fill:#414042"></circle><circle cx="380.29" cy="268.45" r="1.58" style="fill:#414042"></circle><circle cx="390.19" cy="252.27" r="1.58" style="fill:#414042"></circle><circle cx="374.54" cy="242.29" r="1.58" style="fill:#414042"></circle><circle cx="383.06" cy="227.73" r="1.58" style="fill:#414042"></circle><path d="M365.42,221.42A1.58,1.58,0,1,1,367,223,1.58,1.58,0,0,1,365.42,221.42Z" style="fill:#414042"></path><path d="M368.8,250.24a1.58,1.58,0,1,1,1.58,1.58A1.58,1.58,0,0,1,368.8,250.24Z" style="fill:#414042"></path><circle cx="349.59" cy="243.18" r="1.58" style="fill:#414042"></circle><circle cx="379.67" cy="277.42" r="1.58" style="fill:#414042"></circle><path d="M383.22,294.77a1.58,1.58,0,1,1,1.58,1.58A1.58,1.58,0,0,1,383.22,294.77Z" style="fill:#414042"></path><path d="M371.32,292.29a1.58,1.58,0,1,1,1.58,1.58A1.58,1.58,0,0,1,371.32,292.29Z" style="fill:#414042"></path><path d="M365.45,310.58a1.58,1.58,0,1,1,1.58,1.58A1.58,1.58,0,0,1,365.45,310.58Z" style="fill:#414042"></path><circle cx="332.18" cy="296.6" r="1.58" style="fill:#414042"></circle><path d="M359.31,273.19a1.58,1.58,0,1,1,1.58,1.58A1.57,1.57,0,0,1,359.31,273.19Z" style="fill:#414042"></path><circle cx="292.48" cy="280.27" r="5.62" style="fill:#414042"></circle><circle cx="320.38" cy="311.25" r="1.58" style="fill:#414042"></circle><path d="M280.31,309.27a1.59,1.59,0,1,1,1.58,1.58A1.58,1.58,0,0,1,280.31,309.27Z" style="fill:#414042"></path><circle cx="227.94" cy="300.72" r="1.58" style="fill:#414042"></circle><circle cx="347.27" cy="330.37" r="1.58" style="fill:#414042"></circle><circle cx="339.64" cy="348.46" r="1.58" style="fill:#414042"></circle><circle cx="316.97" cy="343.51" r="1.58" style="fill:#414042"></circle><circle cx="286.67" cy="337.91" r="1.58" style="fill:#414042"></circle><circle cx="308.41" cy="370.05" r="1.58" style="fill:#414042"></circle><circle cx="291.28" cy="362.6" r="2.38" transform="translate(-129.23 561.34) rotate(-76.52)" style="fill:#414042"></circle><circle cx="285.73" cy="385.18" r="1.58" style="fill:#414042"></circle><circle cx="264.49" cy="392.44" r="1.58" style="fill:#414042"></circle><circle cx="144.78" cy="377.03" r="1.58" style="fill:#414042"></circle><circle cx="125.98" cy="368.04" r="3.14" transform="translate(-257.38 434.04) rotate(-80.87)" style="fill:#414042"></circle><path d="M149.75,365.62a1.58,1.58,0,1,1,1.58,1.59A1.58,1.58,0,0,1,149.75,365.62Z" style="fill:#414042"></path><path d="M144.33,352.82a1.58,1.58,0,1,1,1.58,1.59A1.58,1.58,0,0,1,144.33,352.82Z" style="fill:#414042"></path><circle cx="143.84" cy="330.37" r="1.58" style="fill:#414042"></circle><circle cx="124.31" cy="340.53" r="1.58" style="fill:#414042"></circle><path d="M96.86,356.44A1.59,1.59,0,1,1,98.44,358,1.58,1.58,0,0,1,96.86,356.44Z" style="fill:#414042"></path><circle cx="80.82" cy="331.66" r="3.11" transform="translate(-259.55 357.77) rotate(-80.69)" style="fill:#414042"></circle><circle cx="100.35" cy="308.71" r="1.58" style="fill:#414042"></circle><circle cx="60.11" cy="313.09" r="1.58" style="fill:#414042"></circle><path d="M82.62,297.14a1.58,1.58,0,1,1,1.58,1.58A1.58,1.58,0,0,1,82.62,297.14Z" style="fill:#414042"></path><circle cx="63.06" cy="286.44" r="1.58" style="fill:#414042"></circle><circle cx="45.79" cy="289.03" r="1.58" style="fill:#414042"></circle><path d="M50.13,274.22a1.59,1.59,0,1,1,1.59,1.58A1.59,1.59,0,0,1,50.13,274.22Z" style="fill:#414042"></path><circle cx="25.52" cy="230.33" r="1.58" style="fill:#414042"></circle><circle cx="16.58" cy="213.73" r="1.58" style="fill:#414042"></circle><circle cx="31.29" cy="199.91" r="1.58" style="fill:#414042"></circle><circle cx="36.49" cy="184.51" r="1.58" style="fill:#414042"></circle><circle cx="47.15" cy="161.11" r="1.58" style="fill:#414042"></circle><circle cx="38.42" cy="136.91" r="1.58" style="fill:#414042"></circle><circle cx="58.43" cy="141.7" r="1.58" style="fill:#414042"></circle><circle cx="67.26" cy="152.83" r="1.58" style="fill:#414042"></circle><circle cx="79.42" cy="132.57" r="1.58" style="fill:#414042"></circle><circle cx="98.53" cy="129.7" r="1.58" style="fill:#414042"></circle><path d="M87.14,123.54a1.58,1.58,0,1,1,1.58,1.58A1.58,1.58,0,0,1,87.14,123.54Z" style="fill:#414042"></path><path d="M96.13,107.22a1.58,1.58,0,1,1,1.58,1.58A1.58,1.58,0,0,1,96.13,107.22Z" style="fill:#414042"></path><circle cx="76.54" cy="107.47" r="1.58" style="fill:#414042"></circle><circle cx="60.17" cy="107.47" r="1.58" style="fill:#414042"></circle><circle cx="79.42" cy="91.41" r="1.58" style="fill:#414042"></circle><circle cx="96.52" cy="90.49" r="1.58" style="fill:#414042"></circle><circle cx="141.55" cy="94" r="1.58" style="fill:#414042"></circle><circle cx="135.48" cy="96.14" r="1.58" style="fill:#414042"></circle><circle cx="130.56" cy="90.1" r="1.58" style="fill:#414042"></circle><circle cx="147.12" cy="86.15" r="1.58" style="fill:#414042"></circle><circle cx="154.83" cy="76.91" r="2.19" transform="translate(-15.33 46.38) rotate(-16.24)" style="fill:#414042"></circle><circle cx="147.22" cy="57.15" r="1.58" style="fill:#414042"></circle><path d="M160.87,72.56a1.58,1.58,0,1,1,1.58,1.58A1.59,1.59,0,0,1,160.87,72.56Z" style="fill:#414042"></path><circle cx="190.99" cy="63.85" r="1.58" style="fill:#414042"></circle><circle cx="193.82" cy="53.93" r="1.58" style="fill:#414042"></circle><circle cx="204.04" cy="50.46" r="1.58" style="fill:#414042"></circle><circle cx="180.95" cy="41.71" r="3.06" style="fill:#414042"></circle><circle cx="166.76" cy="30.52" r="1.58" style="fill:#414042"></circle><circle cx="202.92" cy="41.17" r="1.58" style="fill:#414042"></circle><circle cx="211.18" cy="42.07" r="1.58" style="fill:#414042"></circle><circle cx="210.81" cy="34.37" r="1.58" style="fill:#414042"></circle><circle cx="194.19" cy="28.91" r="1.58" style="fill:#414042"></circle><circle cx="206.2" cy="21.47" r="2.23" transform="translate(138.19 217.31) rotate(-76.79)" style="fill:#414042"></circle><circle cx="217.72" cy="19.24" r="1.58" style="fill:#414042"></circle><circle cx="177.68" cy="65.25" r="1.58" style="fill:#414042"></circle><circle cx="155.13" cy="47.99" r="1.58" style="fill:#414042"></circle><circle cx="167.94" cy="56.45" r="1.58" style="fill:#414042"></circle><circle cx="136.45" cy="71.42" r="1.58" style="fill:#414042"></circle><circle cx="91.63" cy="77.88" r="1.58" style="fill:#414042"></circle><circle cx="63.63" cy="123.03" r="3.33" style="fill:#414042"></circle><path d="M20,196.42A1.58,1.58,0,1,1,21.59,198,1.58,1.58,0,0,1,20,196.42Z" style="fill:#414042"></path><circle cx="42.73" cy="280.71" r="1.58" style="fill:#414042"></circle><circle cx="38.32" cy="286.87" r="1.58" style="fill:#414042"></circle><path d="M28.93,274.65a1.58,1.58,0,1,1,1.58,1.58A1.58,1.58,0,0,1,28.93,274.65Z" style="fill:#414042"></path><circle cx="27.7" cy="259.77" r="1.58" style="fill:#414042"></circle><path d="M17.61,246.08a1.58,1.58,0,1,1,1.58,1.59A1.58,1.58,0,0,1,17.61,246.08Z" style="fill:#414042"></path><circle cx="123.12" cy="319.31" r="1.58" style="fill:#414042"></circle><circle cx="153.99" cy="393.31" r="1.58" style="fill:#414042"></circle><circle cx="204.42" cy="413.23" r="1.58" style="fill:#414042"></circle><path d="M268.1,373.17a1.58,1.58,0,1,1,1.58,1.58A1.58,1.58,0,0,1,268.1,373.17Z" style="fill:#414042"></path><circle cx="361.95" cy="210.48" r="1.58" style="fill:#414042"></circle><circle cx="348.55" cy="219.48" r="1.58" style="fill:#414042"></circle><path d="M333.88,206.72a1.58,1.58,0,1,1,1.58,1.59A1.58,1.58,0,0,1,333.88,206.72Z" style="fill:#414042"></path><circle cx="320.38" cy="214.37" r="1.58" style="fill:#414042"></circle><circle cx="294.25" cy="233.41" r="2.48" style="fill:#414042"></circle><path d="M290.9,202.7a1.58,1.58,0,1,1,1.58,1.58A1.58,1.58,0,0,1,290.9,202.7Z" style="fill:#414042"></path><path d="M288.15,188.49a1.58,1.58,0,1,1,1.58,1.58A1.58,1.58,0,0,1,288.15,188.49Z" style="fill:#414042"></path><circle cx="253.66" cy="195.61" r="1.58" style="fill:#414042"></circle><circle cx="263.11" cy="209.43" r="3.53" style="fill:#414042"></circle><circle cx="271.02" cy="243.75" r="2.83" style="fill:#414042"></circle><circle cx="241.31" cy="231.86" r="1.58" style="fill:#414042"></circle><circle cx="231.54" cy="261.87" r="3.59" style="fill:#414042"></circle><path d="M204.16,289.75a1.58,1.58,0,1,1,1.58,1.58A1.58,1.58,0,0,1,204.16,289.75Z" style="fill:#414042"></path><circle cx="196.04" cy="267.61" r="1.58" style="fill:#414042"></circle><circle cx="201.08" cy="231.78" r="1.58" style="fill:#414042"></circle><path d="M232.2,200.2a1.59,1.59,0,1,1,1.59,1.58A1.58,1.58,0,0,1,232.2,200.2Z" style="fill:#414042"></path><path d="M222.75,215.88a1.58,1.58,0,1,1,1.58,1.58A1.58,1.58,0,0,1,222.75,215.88Z" style="fill:#414042"></path><circle cx="374.16" cy="172.35" r="1.58" style="fill:#414042"></circle><circle cx="358.96" cy="169.59" r="1.58" style="fill:#414042"></circle><circle cx="342.17" cy="176.71" r="1.58" style="fill:#414042"></circle><circle cx="366.16" cy="190.8" r="1.58" style="fill:#414042"></circle><circle cx="317.86" cy="64.87" r="1.58" style="fill:#414042"></circle><path d="M328.08,58.78a1.59,1.59,0,1,1,1.59,1.58A1.59,1.59,0,0,1,328.08,58.78Z" style="fill:#414042"></path><circle cx="307.59" cy="37.77" r="1.58" style="fill:#414042"></circle><path d="M306.9,63.24a1.58,1.58,0,1,1,1.58,1.58A1.58,1.58,0,0,1,306.9,63.24Z" style="fill:#414042"></path><circle cx="305.54" cy="68.7" r="1.58" transform="translate(184.26 357.43) rotate(-79.89)" style="fill:#414042"></circle><path d="M306.48,190.35a1,1,0,1,1,1,1A1,1,0,0,1,306.48,190.35Z" style="fill:#414042"></path><circle cx="304.71" cy="178.96" r="0.99" style="fill:#414042"></circle><path d="M299.38,182.53a1,1,0,1,1,2,0,1,1,0,0,1-2,0Z" style="fill:#414042"></path><circle cx="317.18" cy="181.55" r="0.99" style="fill:#414042"></circle><path d="M342.8,197.56a1,1,0,1,1,1,1A1,1,0,0,1,342.8,197.56Z" style="fill:#414042"></path><circle cx="338.35" cy="202.22" r="0.99" style="fill:#414042"></circle><path d="M328.48,196.93a1,1,0,1,1,1,1A1,1,0,0,1,328.48,196.93Z" style="fill:#414042"></path><path d="M208.24,216.47a1,1,0,1,1,1,1A1,1,0,0,1,208.24,216.47Z" style="fill:#414042"></path><circle cx="190.21" cy="213.51" r="0.99" style="fill:#414042"></circle><circle cx="200.18" cy="224.4" r="0.99" style="fill:#414042"></circle><path d="M186.53,220.17a1,1,0,1,1,1,1A1,1,0,0,1,186.53,220.17Z" style="fill:#414042"></path><circle cx="312.3" cy="52.83" r="0.99" style="fill:#414042"></circle><path d="M291.83,38.23a1,1,0,1,1,1,1A1,1,0,0,1,291.83,38.23Z" style="fill:#414042"></path><circle cx="273.64" cy="29.06" r="0.99" style="fill:#414042"></circle><path d="M290,43.68a1,1,0,1,1,1,1A1,1,0,0,1,290,43.68Z" style="fill:#414042"></path><circle cx="316.23" cy="377.03" r="0.99" style="fill:#414042"></circle><circle cx="331.01" cy="367.6" r="0.99" style="fill:#414042"></circle><path d="M328.87,362.58a1,1,0,1,1,2,0,1,1,0,0,1-2,0Z" style="fill:#414042"></path><circle cx="352.78" cy="345.51" r="0.99" style="fill:#414042"></circle><path d="M52.89,258.08a1,1,0,0,1,2,0,1,1,0,1,1-2,0Z" style="fill:#414042"></path><circle cx="50.87" cy="253.5" r="0.99" style="fill:#414042"></circle><path d="M47,259.7a1,1,0,1,1,1,1A1,1,0,0,1,47,259.7Z" style="fill:#414042"></path><circle cx="42.73" cy="250.32" r="0.99" style="fill:#414042"></circle><path d="M35.5,250a1,1,0,1,1,2,0,1,1,0,0,1-2,0Z" style="fill:#414042"></path><circle cx="39.4" cy="242.76" r="0.99" style="fill:#414042"></circle><path d="M26.17,237.79a1,1,0,1,1,2,0,1,1,0,0,1-2,0Z" style="fill:#414042"></path><path d="M26.17,246.92a1,1,0,1,1,1,1A1,1,0,0,1,26.17,246.92Z" style="fill:#414042"></path><circle cx="38.71" cy="257.85" r="0.99" style="fill:#414042"></circle></g></svg> 