<?xml version="1.0" encoding="UTF-8"?> <svg xmlns="http://www.w3.org/2000/svg" id="Layer_1" data-name="Layer 1" viewBox="0 0 430 430"><g style="opacity:0.8"><path d="M9.09,212.91a1.91,1.91,0,0,0,0-3.81,1.91,1.91,0,0,0,0,3.81Z" style="fill:#414042"></path><path d="M6.71,218.39c2.45,0,2.46-3.82,0-3.82s-2.46,3.82,0,3.82Z" style="fill:#414042"></path><path d="M19.2,209.94a1.91,1.91,0,0,0,0-3.81,1.91,1.91,0,0,0,0,3.81Z" style="fill:#414042"></path><path d="M33.35,206.85a1.91,1.91,0,0,0,0-3.81,1.91,1.91,0,0,0,0,3.81Z" style="fill:#414042"></path><path d="M48.94,205.54a1.91,1.91,0,0,0,0-3.81,1.91,1.91,0,0,0,0,3.81Z" style="fill:#414042"></path><path d="M62,207.44a1.91,1.91,0,0,0,0-3.81,1.91,1.91,0,0,0,0,3.81Z" style="fill:#414042"></path><path d="M75,213.27a1.91,1.91,0,0,0,0-3.81,1.91,1.91,0,0,0,0,3.81Z" style="fill:#414042"></path><path d="M88,222.79A1.91,1.91,0,0,0,88,219a1.91,1.91,0,0,0,0,3.81Z" style="fill:#414042"></path><path d="M86.05,229.33a1.91,1.91,0,0,0,0-3.81,1.91,1.91,0,0,0,0,3.81Z" style="fill:#414042"></path><path d="M15.15,198.76a1.91,1.91,0,0,0,0-3.81,1.91,1.91,0,0,0,0,3.81Z" style="fill:#414042"></path><path d="M22.77,183.06a1.91,1.91,0,0,0,0-3.81,1.91,1.91,0,0,0,0,3.81Z" style="fill:#414042"></path><path d="M31.33,167.12a1.91,1.91,0,0,0,0-3.81,1.91,1.91,0,0,0,0,3.81Z" style="fill:#414042"></path><path d="M41.32,151.66a1.91,1.91,0,0,0,0-3.82c-2.45,0-2.45,3.82,0,3.82Z" style="fill:#414042"></path><path d="M54.68,134.11a1.91,1.91,0,0,0,0-3.81,1.91,1.91,0,0,0,0,3.81Z" style="fill:#414042"></path><path d="M71.17,116.59a1.91,1.91,0,0,0,0-3.81,1.91,1.91,0,0,0,0,3.81Z" style="fill:#414042"></path><path d="M95.13,96a1.91,1.91,0,0,0,0-3.81,1.91,1.91,0,0,0,0,3.81Z" style="fill:#414042"></path><path d="M127.08,79a1.91,1.91,0,0,0,0-3.81,1.91,1.91,0,0,0,0,3.81Z" style="fill:#414042"></path><path d="M160.31,67.64a1.91,1.91,0,0,0,0-3.81,1.91,1.91,0,0,0,0,3.81Z" style="fill:#414042"></path><path d="M190.71,61a1.91,1.91,0,0,0,0-3.82c-2.45,0-2.45,3.82,0,3.82Z" style="fill:#414042"></path><path d="M210.12,59a1.91,1.91,0,0,0,0-3.81,1.91,1.91,0,0,0,0,3.81Z" style="fill:#414042"></path><path d="M212.57,52.18a1.91,1.91,0,0,0,0-3.81,1.91,1.91,0,0,0,0,3.81Z" style="fill:#414042"></path><path d="M218.71,52c2.45,0,2.46-3.82,0-3.82s-2.46,3.82,0,3.82Z" style="fill:#414042"></path><path d="M220.44,59.11a1.91,1.91,0,0,0,0-3.81,1.91,1.91,0,0,0,0,3.81Z" style="fill:#414042"></path><path d="M241.42,60.55a1.91,1.91,0,0,0,0-3.81,1.91,1.91,0,0,0,0,3.81Z" style="fill:#414042"></path><path d="M263.14,64.05a1.91,1.91,0,0,0,0-3.81,1.91,1.91,0,0,0,0,3.81Z" style="fill:#414042"></path><path d="M285.23,70.86a1.91,1.91,0,0,0,0-3.81,1.91,1.91,0,0,0,0,3.81Z" style="fill:#414042"></path><path d="M303.64,78.4a1.91,1.91,0,0,0,0-3.81,1.91,1.91,0,0,0,0,3.81Z" style="fill:#414042"></path><path d="M319.84,86.69a1.91,1.91,0,0,0,0-3.81,1.91,1.91,0,0,0,0,3.81Z" style="fill:#414042"></path><path d="M338.25,98.1a1.91,1.91,0,0,0,0-3.81,1.91,1.91,0,0,0,0,3.81Z" style="fill:#414042"></path><path d="M354.44,110.8a1.91,1.91,0,0,0,0-3.81,1.91,1.91,0,0,0,0,3.81Z" style="fill:#414042"></path><path d="M369.17,125.71a1.91,1.91,0,0,0,0-3.81,1.91,1.91,0,0,0,0,3.81Z" style="fill:#414042"></path><path d="M383,142.46a1.91,1.91,0,0,0,0-3.81,1.91,1.91,0,0,0,0,3.81Z" style="fill:#414042"></path><path d="M393.1,157.56a1.91,1.91,0,0,0,0-3.81,1.91,1.91,0,0,0,0,3.81Z" style="fill:#414042"></path><path d="M402.49,172.84a1.91,1.91,0,0,0,0-3.81,1.91,1.91,0,0,0,0,3.81Z" style="fill:#414042"></path><path d="M409.67,187.38a1.91,1.91,0,0,0,0-3.81,1.91,1.91,0,0,0,0,3.81Z" style="fill:#414042"></path><path d="M415.74,200.08a1.91,1.91,0,0,0,0-3.81,1.91,1.91,0,0,0,0,3.81Z" style="fill:#414042"></path><path d="M421.08,211.13a1.91,1.91,0,0,0,0-3.81,1.91,1.91,0,0,0,0,3.81Z" style="fill:#414042"></path><path d="M423.29,216.47c2.45,0,2.46-3.82,0-3.82s-2.46,3.82,0,3.82Z" style="fill:#414042"></path><path d="M369.36,224.2a1.91,1.91,0,0,0,0-3.81,1.91,1.91,0,0,0,0,3.81Z" style="fill:#414042"></path><path d="M371.38,230.64a1.91,1.91,0,0,0,0-3.81,1.91,1.91,0,0,0,0,3.81Z" style="fill:#414042"></path><path d="M374.33,215.91a1.91,1.91,0,0,0,0-3.81,1.91,1.91,0,0,0,0,3.81Z" style="fill:#414042"></path><path d="M382.61,207.63a1.91,1.91,0,0,0,0-3.81,1.91,1.91,0,0,0,0,3.81Z" style="fill:#414042"></path><path d="M392.73,203.76a1.91,1.91,0,0,0,0-3.81,1.91,1.91,0,0,0,0,3.81Z" style="fill:#414042"></path><path d="M405.8,205.42a1.91,1.91,0,0,0,0-3.81,1.91,1.91,0,0,0,0,3.81Z" style="fill:#414042"></path><path d="M350.58,215.73a1.91,1.91,0,0,0,0-3.81,1.91,1.91,0,0,0,0,3.81Z" style="fill:#414042"></path><path d="M332.17,209.47a1.91,1.91,0,0,0,0-3.81,1.91,1.91,0,0,0,0,3.81Z" style="fill:#414042"></path><path d="M316.34,206a1.91,1.91,0,0,0,0-3.81,1.91,1.91,0,0,0,0,3.81Z" style="fill:#414042"></path><path d="M302.53,205.05a1.91,1.91,0,0,0,0-3.81,1.91,1.91,0,0,0,0,3.81Z" style="fill:#414042"></path><path d="M287.44,206.16a1.91,1.91,0,0,0,0-3.81,1.91,1.91,0,0,0,0,3.81Z" style="fill:#414042"></path><path d="M272.53,208.55a1.91,1.91,0,0,0,0-3.81,1.91,1.91,0,0,0,0,3.81Z" style="fill:#414042"></path><path d="M255.23,213a1.91,1.91,0,0,0,0-3.81,1.91,1.91,0,0,0,0,3.81Z" style="fill:#414042"></path><path d="M236.82,220.88a1.91,1.91,0,0,0,0-3.81,1.91,1.91,0,0,0,0,3.81Z" style="fill:#414042"></path><path d="M237.37,226.77a1.91,1.91,0,0,0,0-3.81,1.91,1.91,0,0,0,0,3.81Z" style="fill:#414042"></path><path d="M216.2,211.49a1.91,1.91,0,0,0,0-3.81,1.91,1.91,0,0,0,0,3.81Z" style="fill:#414042"></path><path d="M199.45,206.71a1.91,1.91,0,0,0,0-3.81,1.91,1.91,0,0,0,0,3.81Z" style="fill:#414042"></path><path d="M177.18,204a1.91,1.91,0,0,0,0-3.81,1.91,1.91,0,0,0,0,3.81Z" style="fill:#414042"></path><path d="M158.58,204.13a1.91,1.91,0,0,0,0-3.81,1.91,1.91,0,0,0,0,3.81Z" style="fill:#414042"></path><path d="M138.33,206.89a1.91,1.91,0,0,0,0-3.81,1.91,1.91,0,0,0,0,3.81Z" style="fill:#414042"></path><path d="M122.32,210.76a1.91,1.91,0,0,0,0-3.81,1.91,1.91,0,0,0,0,3.81Z" style="fill:#414042"></path><path d="M105.38,216.65a1.91,1.91,0,0,0,0-3.81,1.91,1.91,0,0,0,0,3.81Z" style="fill:#414042"></path><path d="M92.68,204.5a1.91,1.91,0,0,0,0-3.81,1.91,1.91,0,0,0,0,3.81Z" style="fill:#414042"></path><path d="M100.78,180.94a1.91,1.91,0,0,0,0-3.81,1.91,1.91,0,0,0,0,3.81Z" style="fill:#414042"></path><path d="M108.88,159.77a1.91,1.91,0,0,0,0-3.81,1.91,1.91,0,0,0,0,3.81Z" style="fill:#414042"></path><path d="M118.64,137.31a1.91,1.91,0,0,0,0-3.81,1.91,1.91,0,0,0,0,3.81Z" style="fill:#414042"></path><path d="M129.31,117.06a1.91,1.91,0,0,0,0-3.81,1.91,1.91,0,0,0,0,3.81Z" style="fill:#414042"></path><path d="M141.46,98.29a1.91,1.91,0,0,0,0-3.82c-2.45,0-2.45,3.82,0,3.82Z" style="fill:#414042"></path><path d="M155.09,83.38c2.45,0,2.45-3.82,0-3.82a1.91,1.91,0,0,0,0,3.82Z" style="fill:#414042"></path><path d="M170.18,72.88a1.91,1.91,0,0,0,0-3.81,1.91,1.91,0,0,0,0,3.81Z" style="fill:#414042"></path><path d="M184.91,66.62a1.91,1.91,0,0,0,0-3.81,1.91,1.91,0,0,0,0,3.81Z" style="fill:#414042"></path><path d="M200.19,62a1.91,1.91,0,0,0,0-3.81,1.91,1.91,0,0,0,0,3.81Z" style="fill:#414042"></path><path d="M215.28,58.71a1.91,1.91,0,0,0,0-3.81,1.91,1.91,0,0,0,0,3.81Z" style="fill:#414042"></path><path d="M219.51,63.68a1.91,1.91,0,0,0,0-3.81,1.91,1.91,0,0,0,0,3.81Z" style="fill:#414042"></path><path d="M223.38,71.59a1.91,1.91,0,0,0,0-3.81,1.91,1.91,0,0,0,0,3.81Z" style="fill:#414042"></path><path d="M227.61,86.5a1.91,1.91,0,0,0,0-3.81,1.91,1.91,0,0,0,0,3.81Z" style="fill:#414042"></path><path d="M231.48,106.94a1.91,1.91,0,0,0,0-3.81,1.91,1.91,0,0,0,0,3.81Z" style="fill:#414042"></path><path d="M233.14,133.63a1.91,1.91,0,0,0,0-3.81,1.91,1.91,0,0,0,0,3.81Z" style="fill:#414042"></path><path d="M234.42,163.63a1.91,1.91,0,0,0,0-3.81,1.91,1.91,0,0,0,0,3.81Z" style="fill:#414042"></path><path d="M235.53,192.35a1.91,1.91,0,0,0,0-3.81,1.91,1.91,0,0,0,0,3.81Z" style="fill:#414042"></path><path d="M231.85,61.1a1.91,1.91,0,0,0,0-3.81,1.91,1.91,0,0,0,0,3.81Z" style="fill:#414042"></path><path d="M254.86,67.18a1.91,1.91,0,0,0,0-3.81,1.91,1.91,0,0,0,0,3.81Z" style="fill:#414042"></path><path d="M274.92,75.83a1.91,1.91,0,0,0,0-3.81,1.91,1.91,0,0,0,0,3.81Z" style="fill:#414042"></path><path d="M291.67,87.24a1.91,1.91,0,0,0,0-3.81,1.91,1.91,0,0,0,0,3.81Z" style="fill:#414042"></path><path d="M304.74,97.73a1.91,1.91,0,0,0,0-3.81,1.91,1.91,0,0,0,0,3.81Z" style="fill:#414042"></path><path d="M318.37,114.12a1.91,1.91,0,0,0,0-3.81,1.91,1.91,0,0,0,0,3.81Z" style="fill:#414042"></path><path d="M330.33,130.68a1.91,1.91,0,0,0,0-3.81,1.91,1.91,0,0,0,0,3.81Z" style="fill:#414042"></path><path d="M340.64,149.46a1.91,1.91,0,0,0,0-3.81,1.91,1.91,0,0,0,0,3.81Z" style="fill:#414042"></path><path d="M351.13,172.1a1.91,1.91,0,0,0,0-3.81,1.91,1.91,0,0,0,0,3.81Z" style="fill:#414042"></path><path d="M361.26,197.14a1.91,1.91,0,0,0,0-3.81,1.91,1.91,0,0,0,0,3.81Z" style="fill:#414042"></path><path d="M212.89,23.55a1.91,1.91,0,0,0,0-3.81,1.91,1.91,0,0,0,0,3.81Z" style="fill:#414042"></path><path d="M218.78,23.73a1.91,1.91,0,0,0,0-3.81,1.91,1.91,0,0,0,0,3.81Z" style="fill:#414042"></path><path d="M214.85,332.38a1.91,1.91,0,0,0,0-3.81,1.91,1.91,0,0,0,0,3.81Z" style="fill:#414042"></path><path d="M217.25,335.78a1.91,1.91,0,0,0,0-3.81,1.91,1.91,0,0,0,0,3.81Z" style="fill:#414042"></path><path d="M209.65,332a1.91,1.91,0,0,0,0-3.81,1.91,1.91,0,0,0,0,3.81Z" style="fill:#414042"></path><path d="M206.45,336a1.91,1.91,0,0,0,0-3.81,1.91,1.91,0,0,0,0,3.81Z" style="fill:#414042"></path><path d="M210.45,210.16a1.91,1.91,0,0,0,0-3.81,1.91,1.91,0,0,0,0,3.81Z" style="fill:#414042"></path><path d="M205.45,389a1.91,1.91,0,0,0,0-3.81,1.91,1.91,0,0,0,0,3.81Z" style="fill:#414042"></path><path d="M200.25,398.6a1.91,1.91,0,0,0,0-3.81,1.91,1.91,0,0,0,0,3.81Z" style="fill:#414042"></path><path d="M190.85,403.4a1.91,1.91,0,0,0,0-3.81,1.91,1.91,0,0,0,0,3.81Z" style="fill:#414042"></path><path d="M180.25,402a1.91,1.91,0,0,0,0-3.81,1.91,1.91,0,0,0,0,3.81Z" style="fill:#414042"></path><path d="M171.65,395.8a1.91,1.91,0,0,0,0-3.81,1.91,1.91,0,0,0,0,3.81Z" style="fill:#414042"></path><path d="M169.75,384.09v-.2a1.91,1.91,0,0,0-3.81,0v.2a1.91,1.91,0,0,0,3.81,0Z" style="fill:#414042"></path><path d="M168.85,376.59a1.91,1.91,0,0,0,0-3.81,1.91,1.91,0,0,0,0,3.81Z" style="fill:#414042"></path><path d="M164.44,373a1.91,1.91,0,0,0,0-3.81,1.91,1.91,0,0,0,0,3.81Z" style="fill:#414042"></path><path d="M158.84,377.59a1.91,1.91,0,0,0,0-3.81,1.91,1.91,0,0,0,0,3.81Z" style="fill:#414042"></path><path d="M157.84,388.19a1.91,1.91,0,0,0,0-3.81,1.91,1.91,0,0,0,0,3.81Z" style="fill:#414042"></path><path d="M161.24,399.8a1.91,1.91,0,0,0,0-3.81,1.91,1.91,0,0,0,0,3.81Z" style="fill:#414042"></path><path d="M167,407.8a1.91,1.91,0,0,0,0-3.81,1.91,1.91,0,0,0,0,3.81Z" style="fill:#414042"></path><path d="M175.45,413.2a1.91,1.91,0,0,0,0-3.81,1.91,1.91,0,0,0,0,3.81Z" style="fill:#414042"></path><path d="M186.85,415a1.91,1.91,0,0,0,0-3.81,1.91,1.91,0,0,0,0,3.81Z" style="fill:#414042"></path><path d="M199.65,412.2a1.91,1.91,0,0,0,0-3.81,1.91,1.91,0,0,0,0,3.81Z" style="fill:#414042"></path><path d="M209.65,405a1.91,1.91,0,0,0,0-3.81,1.91,1.91,0,0,0,0,3.81Z" style="fill:#414042"></path><path d="M214.65,395.8a1.91,1.91,0,0,0,0-3.81,1.91,1.91,0,0,0,0,3.81Z" style="fill:#414042"></path><path d="M216.45,385.39a1.91,1.91,0,0,0,0-3.81,1.91,1.91,0,0,0,0,3.81Z" style="fill:#414042"></path><path d="M215.56,18.81a1.91,1.91,0,0,0,0-3.81,1.91,1.91,0,0,0,0,3.81Z" style="fill:#414042"></path><path d="M212.69,33a1.91,1.91,0,0,0,0-3.81,1.91,1.91,0,0,0,0,3.81Z" style="fill:#414042"></path><path d="M212.55,43.7a1.91,1.91,0,0,0,0-3.81,1.91,1.91,0,0,0,0,3.81Z" style="fill:#414042"></path><path d="M218.61,31.16a1.91,1.91,0,0,0,0-3.81,1.91,1.91,0,0,0,0,3.81Z" style="fill:#414042"></path><path d="M218.47,43.14a1.91,1.91,0,0,0,0-3.81,1.91,1.91,0,0,0,0,3.81Z" style="fill:#414042"></path><path d="M206.06,351.74a1.91,1.91,0,0,0,0-3.82c-2.45,0-2.45,3.82,0,3.82Z" style="fill:#414042"></path><path d="M205.87,371.27a1.91,1.91,0,0,0,0-3.81,1.91,1.91,0,0,0,0,3.81Z" style="fill:#414042"></path><path d="M216.92,347a1.91,1.91,0,0,0,0-3.81,1.91,1.91,0,0,0,0,3.81Z" style="fill:#414042"></path><path d="M216.52,366.53a1.91,1.91,0,0,0,0-3.81,1.91,1.91,0,0,0,0,3.81Z" style="fill:#414042"></path><path d="M210,300.83a1.91,1.91,0,0,0,0-3.81,1.91,1.91,0,0,0,0,3.81Z" style="fill:#414042"></path><path d="M209.81,271.44a1.91,1.91,0,0,0,0-3.81,1.91,1.91,0,0,0,0,3.81Z" style="fill:#414042"></path><path d="M210.21,239.67a1.91,1.91,0,0,0,0-3.81,1.91,1.91,0,0,0,0,3.81Z" style="fill:#414042"></path><path d="M216.32,225.86a1.91,1.91,0,0,0,0-3.81,1.91,1.91,0,0,0,0,3.81Z" style="fill:#414042"></path><path d="M215.73,251.12a1.91,1.91,0,0,0,0-3.81,1.91,1.91,0,0,0,0,3.81Z" style="fill:#414042"></path><path d="M215.53,280.32a1.91,1.91,0,0,0,0-3.82c-2.45,0-2.45,3.82,0,3.82Z" style="fill:#414042"></path><path d="M215.34,312.87a1.91,1.91,0,0,0,0-3.81,1.91,1.91,0,0,0,0,3.81Z" style="fill:#414042"></path><path d="M186.85,413.28h0l-11.4-1.81-.07,0-8.4-5.4,0-.05-5.8-8a.09.09,0,0,1,0-.06l-3.4-11.6a.15.15,0,0,1,0-.07l1-10.6a.19.19,0,0,1,.07-.12l5.6-4.6a.18.18,0,0,1,.23,0l4.4,3.61a.2.2,0,0,1,.07.16l-1,9.36,3.77,9.7,8.52,6.15,10.5,1.38,9.3-4.74,5.15-9.52,1-53a.14.14,0,0,1,0-.11l3.2-4a.2.2,0,0,1,.26,0,.19.19,0,0,1,0,.26l-3.17,3.95-1,52.95s0,.06,0,.08l-5.2,9.61a.27.27,0,0,1-.07.08l-9.41,4.8h-.1l-10.61-1.4a.13.13,0,0,1-.08,0l-8.6-6.2a.27.27,0,0,1-.07-.08l-3.8-9.8a.28.28,0,0,1,0-.09l1-9.3-4.21-3.45L159,375.78l-1,10.49,3.38,11.54,5.76,7.95,8.34,5.36,11.33,1.79,12.74-2.79,9.93-7.15,5-9.14,1.79-10.37.8-49.52-2.37-3.36a.19.19,0,0,1,.05-.25.17.17,0,0,1,.25.05l2.4,3.4a.12.12,0,0,1,0,.1l-.8,49.61-1.81,10.43a.14.14,0,0,1,0,.06l-5,9.2-.05.06-10,7.2a.09.09,0,0,1-.07,0l-12.8,2.8Z" style="fill:#414042"></path><path d="M220.44,57.39h0l-5.16-.4-5.14.33a.24.24,0,0,1-.16-.07.18.18,0,0,1,0-.17l2.45-6.84.31-28.6a.16.16,0,0,1,0-.09l2.67-4.73a.21.21,0,0,1,.16-.1h0a.19.19,0,0,1,.16.09l3.21,4.92a.17.17,0,0,1,0,.1l-.07,28.23,1.73,7.11a.2.2,0,0,1,0,.16A.17.17,0,0,1,220.44,57.39Zm-5.17-.77,4.93.39-1.67-6.91.07-28.22-3-4.62-2.51,4.43-.32,28.59a.13.13,0,0,1,0,.06l-2.36,6.6Z" style="fill:#414042"></path><path d="M371.38,228.91a.16.16,0,0,1-.17-.12l-2-6.45a.21.21,0,0,1,0-.15l5-8.28,8.31-8.31a.1.1,0,0,1,.07,0l10.12-3.87a.14.14,0,0,1,.09,0l13.07,1.65,15.31,5.72a.17.17,0,0,1,.11.23.18.18,0,0,1-.23.11l-15.28-5.7-13-1.64-10.05,3.83-8.26,8.26-4.89,8.17,2,6.37a.19.19,0,0,1-.13.23Z" style="fill:#414042"></path><path d="M86.05,227.6h0a.19.19,0,0,1-.13-.23l1.91-6.54,4.72-18.28L100.61,179l8.1-21.17,9.76-22.47,10.68-20.26,12.16-18.79L155,81.35l15.13-10.52,14.76-6.28,23.42-7-17.53,1.72-30.38,6.7L127.14,77.25l-31.92,17L71.29,114.83l-16.48,17.5L41.47,149.86l-10,15.45-8.55,15.93-7.61,15.69L9.26,211.08l-2.38,5.47a.18.18,0,0,1-.24.1.19.19,0,0,1-.1-.25l2.38-5.46L15,196.78l7.61-15.71,8.57-15.94,10-15.48L54.53,132.1,71,114.56,95,93.94l32-17,33.26-11.34,30.42-6.71L210.1,57a.18.18,0,0,1,.2.14.19.19,0,0,1-.13.21L185,64.89l-14.71,6.25L155.19,81.62,141.6,96.5l-12.13,18.76L118.8,135.49l-9.75,22.45L101,179.1l-8.1,23.55-4.72,18.28-1.91,6.54A.17.17,0,0,1,86.05,227.6Z" style="fill:#414042"></path><path d="M369.36,222.47h-.08L350.5,214l-18.39-6.25-15.81-3.49-13.78-.92-15.07,1.1-14.89,2.4-17.29,4.41-18.38,7.9a.14.14,0,0,1-.15,0l-20.62-9.38-5.71-1.33a.18.18,0,0,1-.14-.22.19.19,0,0,1,.23-.13l5.74,1.33,20.58,9.37,18.33-7.88,17.33-4.43,14.93-2.4L302.52,203l13.83.92,15.86,3.51,18.43,6.26L369.07,222l-8-26.68-10.12-25-10.49-22.64-10.3-18.76-11.95-16.55L304.6,95.94l-13-10.46L274.82,74.07l-20-8.63-23-6.07-11.39-2a.18.18,0,0,1,0-.36h0l21,1.43L263.17,62l22.12,6.82,18.42,7.55,16.21,8.29L338.34,96l16.22,12.71,14.74,14.93,13.82,16.76,10.13,15.11,9.39,15.29,7.19,14.56,6.08,12.7,5.34,11,2.21,5.35a.18.18,0,0,1-.1.24.19.19,0,0,1-.24-.1l-2.21-5.34-5.33-11-6.08-12.71L402.33,171,393,155.75l-10.13-15.09L369,123.92,354.32,109,338.13,96.34l-18.39-11.4-16.18-8.28-18.4-7.54-22.07-6.8-21.7-3.5-17.46-1.19L231.88,59l23,6.07L275,73.75l16.79,11.43,13.08,10.5,13.65,16.41,12,16.58,10.32,18.8,10.5,22.65,10.12,25,8.11,27.08a.17.17,0,0,1-.17.23Z" style="fill:#414042"></path><path d="M19.2,208.22a.17.17,0,0,1-.17-.12L15,196.92a.19.19,0,0,1,.07-.22l114.07-81.63-2.23-38a.2.2,0,0,1,.16-.2l42.55-6-9.37-5a.19.19,0,0,1-.1-.2.18.18,0,0,1,.18-.14l24.59-1h0a.17.17,0,0,1,.18.17.18.18,0,0,1-.18.19l-23.92,1,9.28,4.92a.2.2,0,0,1,.09.2.18.18,0,0,1-.15.15l-42.94,6.07,2.23,37.92a.21.21,0,0,1-.08.16l-114,81.61,4,11.05a.18.18,0,0,1-.11.24Z" style="fill:#414042"></path><path d="M75,211.55a.21.21,0,0,1-.11,0,.16.16,0,0,1-.07-.18L95,94.05a.17.17,0,0,1,.15-.15.17.17,0,0,1,.19.09l23.51,41.32a.18.18,0,0,1-.07.25.19.19,0,0,1-.25-.06L95.22,94.61,75.23,211l17.37-8.61a.19.19,0,0,1,.25.08.2.2,0,0,1-.09.25l-17.69,8.77Z" style="fill:#414042"></path><path d="M19.2,208.22h0A.17.17,0,0,1,19,208l3.57-26.88a.14.14,0,0,1,.08-.13l4.85-3,3.63-12.83a.21.21,0,0,1,.17-.13.17.17,0,0,1,.18.11l3.71,8.09,31.87-19.74L71,114.67a.17.17,0,0,1,.11-.15l34.61-13.7L95,94.23A.19.19,0,0,1,95,94a.2.2,0,0,1,.26-.06l10.91,6.73,8.16-3.23L126.92,77a.19.19,0,0,1,.19-.08l28,4.39a.18.18,0,0,1,.16.16.18.18,0,0,1-.12.19l-40.6,16.07-3.63,5.89L129.41,115a.19.19,0,0,1,.09.16.19.19,0,0,1-.09.15L87.75,141.12,65,178,62.2,205.56a.2.2,0,0,1-.2.16.18.18,0,0,1-.16-.2l2.7-26.81-15.45,25a.19.19,0,0,1-.16.09h0a.21.21,0,0,1-.15-.11l-13.72-30-7.22,4.47-8.46,29.86A.17.17,0,0,1,19.2,208.22Zm3.74-27-3.23,24.29,7.66-27Zm12.42-7.69L49,203.25l15.66-25.37L67,154Zm-4-7.83-3.39,12,6.91-4.28Zm36.05-12-2.36,23.46,22-35.62Zm3.92-38.89-3.87,38.43,20-12.4,22.92-37.13-4.31-2.66Zm39.38-10.91L88.18,140.42,129,115.16Zm-4.19-3,4.07,2.52L114,97.94Zm20.64-23.62-12.3,19.92L154.4,81.55Z" style="fill:#414042"></path><path d="M33.28,205.22h-.05c-.27-.06-.74-.14-1.47-20.16-.36-9.82-.61-19.74-.61-19.84a.18.18,0,0,1,.18-.19h0a.18.18,0,0,1,.18.18c.37,14.65,1.11,36.38,1.76,39.37,1.27-4.94,7.81-54.34,7.87-54.85a.21.21,0,0,1,.1-.14l99.95-53.27L126.93,77.18a.18.18,0,0,1,0-.25.18.18,0,0,1,.26,0l14.38,19.3a.2.2,0,0,1,0,.15.16.16,0,0,1-.09.12L41.49,149.87c-.42,3.22-7,52.83-8,55.14C33.45,205.18,33.35,205.22,33.28,205.22Z" style="fill:#414042"></path><path d="M100.78,179.22a.2.2,0,0,1-.17-.11L71,114.77a.19.19,0,0,1,0-.18.18.18,0,0,1,.15-.08h0l58.12.46,98.27-30.55a.19.19,0,0,1,.23.13.17.17,0,0,1-.12.22l-98.3,30.56h-.06l-57.85-.47L101,179a.18.18,0,0,1-.09.24Z" style="fill:#414042"></path><path d="M214.85,330.66h0l-5.2-.4a.18.18,0,0,1-.17-.18l.8-121.69L199.39,205l-22.24-2.76-18.57.19-20.22,2.76-16,3.86-16.92,5.89L88,221.05h-.08a.16.16,0,0,1-.09,0l-13-9.52L62,205.72l-13.06-1.9h0l-15.54,1.3h0l-14.13,3.09-10.1,3a.18.18,0,0,1-.23-.13.19.19,0,0,1,.13-.23c.6-.2,3.77-5.25,8.24-12.83l-2.2-1a.18.18,0,0,1,.15-.33l2.24,1c2.11-3.58,4.5-7.71,7.05-12.14l-1.92-4.31a.2.2,0,0,1,0-.22.17.17,0,0,1,.21,0L26,183c2.83-4.94,5.8-10.18,8.76-15.43l-3.52-2.15a.16.16,0,0,1-.09-.15.15.15,0,0,1,.07-.15l8.69-6.7,3-5.35-1.74-3.18a.2.2,0,0,1,0-.22l8.51-8.8c1.82-3.27,3.45-6.21,4.82-8.7h0l0,0h0L68,121.86l3-7.24a.19.19,0,0,1,.14-.11.2.2,0,0,1,.17.06l1.79,2L95,94h0l.07,0,16.84-5.5L127,76.93l.06,0,29.27-8.3,3.9-3a.18.18,0,0,1,.23,0,.17.17,0,0,1,0,.23l-1.18,1.93,31.37-8.9a.19.19,0,0,1,.21.09.18.18,0,0,1,0,.22l-5.44,5.32,34.1-2.9a.18.18,0,0,1,.19.15l13.63,69.95v.07l-16.94,77.87L215,330.48a.2.2,0,0,1-.06.13A.17.17,0,0,1,214.85,330.66Zm-5-.75,4.83.37L216,209.59,233,131.72,219.36,62,185,64.9,141.61,96.5C140.38,99.36,91.54,213,88.28,220.57l17-6,16.94-5.89,16-3.87,20.27-2.76,18.61-.19,22.3,2.76,11,3.46a.2.2,0,0,1,.13.18Zm-129-128.42L88,220.39c3.34-7.75,50.67-117.88,53.23-123.84l-19.29-1L96.71,115,98,134.19l20.67,1a.18.18,0,0,1,.15.1.19.19,0,0,1,0,.18l-11.6,20.17,1.82,2.07a.2.2,0,0,1,0,.15.22.22,0,0,1-.08.13l-4.87,3-3.89,6.77L101,179a.15.15,0,0,1-.08.16L89,187.29l-2.27,4,6.08,11.27a.18.18,0,0,1,0,.22.2.2,0,0,1-.22,0l-9.22-5.61Zm-5.65,9.83,12.34,9.05L80.63,201.9Zm-5.84-10.59L75,211l5.48-9.53L78,194.84Zm-7,4.77L74.56,211l-5.48-10Zm-44.77-7.35a146.82,146.82,0,0,1-7.89,12.48l9.42-2.77,13.62-3Zm32-.54L62,205.32l6.88-4.71-7.17-13.14-11.91,7.42Zm-.47,5.87,12,1.75L49.57,198Zm-2-6.94L34.09,204.7l14.68-1.24.45-5.66Zm-29.37,1.29L33,204.58,24.71,186C22.24,190.27,19.89,194.3,17.81,197.83Zm21.35-6.28-5.42,12.93,13.1-8.16Zm-14.23-6,8.42,18.91,5.5-13.12-12.71-7.89Zm58.63,11.25,8.64,5.27-5.65-10.48Zm-5.26-2.19,2.4,6.42,2.36-4.1-4.31-2.63ZM62,187.28l7.17,13.12,8.64-5.91-.34-.93-12.92-7.87Zm-14.51,9,1.72,1.07.19-2.26Zm31.55-2.23,4.16,2.54,3.1-5.39-.83-1.54Zm-39.77-2.88,7.87,4.9,2.29-1.43,1.4-17.35-4.58-2.79Zm11.91-13.67-1.36,16.9,11.69-7.29-2.71-5ZM78,193.87l.15.41.25-.17Zm-.21-.56.94.57,6.6-4.51-6.72-12.43L73,180.46Zm-12.87-7.84L77.3,193l-4.64-12.35Zm-38.61-2.32L39,191l7-16.67-10.89-6.63C32.17,172.89,29.18,178.16,26.32,183.15Zm59.49,6.34.75,1.37,1.78-3.1Zm-6.88-12.74,6.71,12.42L88.76,187l11.09-19.29-.26-3.87Zm-19.47,5.82,2.4,4.39,2.38-1.48Zm40.43-14.18L89.45,186.56l11.14-7.62ZM59.11,181.93l5.47,3.33,8-4.95L59,144.22l-6.3,15.05-.77,9.5Zm-35.93-.31,1.56,3.53,1.08-1.88Zm28.07-4.49,7.24,4.41-6.62-12.11Zm8-33.23,13.59,36.21,5.6-3.49L60.34,143.07ZM46.43,174.2l4.47,2.72.65-8.07-1.63-3Zm14.2-31.35,18.13,33.57,20.8-13-1.15-17.3L87.84,134.05,73,133.31ZM35.26,167.4,46.12,174l3.58-8.55-5.45-10-4,3.12C38.61,161.45,37,164.41,35.26,167.4Zm14.84-2,1.5,2.74.63-7.82Zm-18.45-.25,3.29,2q2.28-4,4.51-8Zm68.29-1.54.24,3.51,3.27-5.7Zm-55.4-8.39L49.88,165l2.45-5.84.85-10.6Zm54.27-8.65,1.1,16.63,3.93-2.45,2.92-5.08ZM107,156l-2.52,4.38,4.11-2.56Zm-53.44-7.71-.79,9.81,5.7-13.59Zm-10.46,5.12-2.44,4.37,3.4-2.62ZM98.77,146l8.18,9.36,11.38-19.8-20.32-1Zm-55.45,7,1,1.9,8.86-6.83.91-11.34L50,141C48.12,144.42,45.84,148.52,43.32,153Zm-1.77-3.25,1.56,2.86c2.09-3.73,4.08-7.3,5.91-10.59Zm13-13.43-.92,11.45,5.15-4,.05-.1-3.19-8.5Zm33.81-2.28,10,11.48-.73-11Zm-28.49,8.1-.5,1.2.81-.62Zm-4-7.24,3.11,8.3.62-1.47-3.7-6.86ZM60,141.74l.43.78,12-9.24-8.68-.43Zm-3.84-7.11,3.62,6.7,3.56-8.5-5.18-.26ZM54.43,133l-3.74,6.76,3.49-3.61Zm.37,0-.22,2.73.89-.92Zm.2-.63,1,1.88,1.69-1.75Zm33,1.28,9.6.48-1.25-18.88L81.77,126.54ZM73.45,133l14,.71-6-6.9Zm-9.54-.47,9,.45,8.36-6.45-7.49-8.57-5.32,4-.2.2Zm-5.39-.27,5,.25,4-9.58Zm-3.33-.17,2.85.14,8.46-8.75ZM74,117.7l7.49,8.57,14.8-11.42-.9-13.45ZM71.23,115l-2.61,6.21,4.22-4.36Zm1.85,2.13-3,3.07,3.4-2.59Zm.26-.27.46.53L95.41,101,95,94.5Zm22.44-15.75.9,13.44,24.66-19-17.12-.85Zm-.45-6.87.42,6.43,7.9-6Zm27,1,19,.94,13.13-21.33-9.9,3.24ZM155,74.68l-12.91,21,41.76-30.44ZM104.67,94.37l17.12.85,21.76-16.78L112.08,88.73Zm-8.54-.43,8,.4L111,89.07Zm31-16.7L113,88.05l31.45-10.28,11.11-8.57Zm29.31-8.3-11,8.49,9.33-3.05,3.7-6Zm2.53-.72-3.68,6,29.49-9.64,5.26-5.15Zm.63-1.73-2.39,1.85,1.53-.44Z" style="fill:#414042"></path><path d="M212.89,42a.17.17,0,0,1-.18-.16.18.18,0,0,1,.16-.2l5.62-.55L212.71,21.7a.19.19,0,0,1,.13-.23.18.18,0,0,1,.22.12l5.85,19.59a.23.23,0,0,1,0,.16.22.22,0,0,1-.13.08L212.9,42Z" style="fill:#414042"></path><path d="M212.57,50.46a.19.19,0,0,1-.16-.09.2.2,0,0,1,0-.2l3-4.43-2.7-3.84a.17.17,0,0,1,0-.18l1.86-4.07-2.06-6.51a.11.11,0,0,1,0-.08h0s0,0,0,0h0a.08.08,0,0,1,0,0l3.33-5.07-3.13-4.16a.19.19,0,0,1,0-.19.21.21,0,0,1,.17-.1h0l5.89.18a.2.2,0,0,1,.16.1.19.19,0,0,1,0,.19l-2.61,4,2.44,3.24a.21.21,0,0,1,0,.19l-3,6.58,3.12,5.23a.2.2,0,0,1,0,.2L217,44.09,218.88,50a.17.17,0,0,1,0,.14h0a.16.16,0,0,1-.09.07h-.06l-6.13.22Zm3.1-4.4-2.74,4,5.43-.19Zm.22-.32L218.18,49l-1.43-4.52Zm-2.79-4,2.56,3.64L216.6,44l-1.86-5.86ZM215,37.67l1.9,6,1.64-2.42-2.92-4.91Zm-1.63-5.13,1.47,4.61.55-1.22Zm-.44-1.45,2.65,4.44,2.85-6.26-2.3-3.05Zm.36-9.25,2.82,3.75L218.44,22Z" style="fill:#414042"></path><path d="M210.45,208.44h-.06a.19.19,0,0,1-.11-.12l-8.49-28.95-43.12,23a.18.18,0,0,1-.27-.18L170,71a.18.18,0,0,1,.16-.17.2.2,0,0,1,.2.13L202,178.83l23.58-12.59L184.74,64.79a.19.19,0,0,1,.06-.22.18.18,0,0,1,.23,0l23.26,20.15-8.24-24.45-9.36-1.06a.18.18,0,0,1-.16-.2.18.18,0,0,1,.18-.16h0l9.48,1.07a.18.18,0,0,1,.15.13l8.47,25.14c11.08,9.6,22,19.06,22.77,19.69a.2.2,0,0,1,0,.26.19.19,0,0,1-.26,0c-.74-.62-11.38-9.83-22.3-19.29l25.54,75.79a.18.18,0,0,1-.09.22l-8.46,4.52,9.65,24a.17.17,0,0,1-.06.21L210.56,208.4A.15.15,0,0,1,210.45,208.44Zm-8.33-29.25L210.56,208l24.75-17.58-9.58-23.8ZM170.28,72l-11.49,130L201.68,179Zm15.08-6.61,40.55,100.72,8.29-4.43L208.52,85.41Z" style="fill:#414042"></path><path d="M236.82,219.16a.21.21,0,0,1-.15-.07l-19-24.44-7,13.69a.17.17,0,0,1-.22.09.18.18,0,0,1-.13-.19l1.92-20.62L141.32,96.49a.16.16,0,0,1,0-.16.16.16,0,0,1,.12-.12L212.55,73l-2.61-15.85a.18.18,0,0,1,.15-.21.18.18,0,0,1,.21.15l2.6,15.8,10.42-3.4a.2.2,0,0,1,.17,0,.16.16,0,0,1,.07.16l-4,43.31,9.65,58.5,5.09-9.87a.18.18,0,0,1,.25-.08.18.18,0,0,1,.08.24l-5.32,10.32L237,219a.18.18,0,0,1-.11.19A.1.1,0,0,1,236.82,219.16Zm-19-24.86,18.67,24L229,172.67ZM212.52,188l-1.8,19.29,6.7-13Zm0-.53,5,6.47,11.29-21.91-9.5-57.61Zm-70.8-91,70.47,90.62L219.15,113l-6.54-39.64ZM213,73.27l6.33,38.33L223.17,70Z" style="fill:#414042"></path><path d="M350.58,214a.17.17,0,0,1-.18-.15l-9.92-66.09L234.56,161.9l-9,23.64,10.06,4.74a.19.19,0,0,1,.1.13.18.18,0,0,1-.05.16l-19.33,19.15a.18.18,0,0,1-.23,0,.19.19,0,0,1-.07-.22l9.06-23.79-33.86-15.94-13.89,32.32a.2.2,0,0,1-.11.11.24.24,0,0,1-.15,0l-45.75-29.59c-3.25,13.23-6.32,25.89-8.83,36.29a.18.18,0,0,1-.18.14h0a.19.19,0,0,1-.18-.14l-13.44-51a.18.18,0,0,1,.28-.2L131.1,172c2.12-8.62,4.43-18,6.77-27.36l-19.31-9.09a.16.16,0,0,1-.1-.14.17.17,0,0,1,.06-.16l27.74-23.74c4.42-17.08,7.9-29.66,8.69-30.22l5.19-15.63a.18.18,0,0,1,.23-.12.19.19,0,0,1,.12.24l-5.23,15.73a.2.2,0,0,1-.11.11h-.05c-.76.82-4,12.68-8.36,29.47L210,57a.15.15,0,0,1,.14,0,.14.14,0,0,1,.13.08l17.5,27.46a.2.2,0,0,1,0,.17l-36.41,84.78,33.85,15.94,9-23.73a.18.18,0,0,1,.14-.11l106.21-14.18a.2.2,0,0,1,.21.16l9.94,66.27a.17.17,0,0,1-.15.2ZM225.42,185.89l-8.75,23,18.54-18.37ZM109.18,158.27l13.13,49.84c1.19-4.91,4.55-18.82,8.7-35.71Zm22.25,14,45.66,29.54,13.81-32.14-52.69-24.81C136,153.87,133.65,163.19,131.43,172.23Zm6.87-27.77L191,169.29l36.37-84.68-17.34-27.2-63.49,54.33C144.07,121.43,141.22,132.72,138.3,144.46ZM119,135.36l19,8.94c2.8-11.23,5.62-22.4,8.14-32.15Z" style="fill:#414042"></path><path d="M237.37,225.05a.18.18,0,0,1-.18-.16l-.56-5.9-1.28-28.54-1.11-28.71L233,131.83,155,81.62a.18.18,0,0,1,0-.32l60.19-24.67a.18.18,0,0,1,.21,0l4.23,5,0,0,3.86,7.92,4.25,14.94L231.66,105l1.66,26.71h0l1.29,30,1.1,28.72L237,219l.55,5.88a.18.18,0,0,1-.16.2ZM155.48,81.51l77.45,49.86L231.3,105l-3.86-20.41L223.2,69.74l-3.84-7.87L215.23,57Z" style="fill:#414042"></path><path d="M223.38,69.87h-.07l-23.2-9.57a.2.2,0,0,1-.1-.22.18.18,0,0,1,.17-.14h0l19.33,1.66a.18.18,0,0,1,.16.2.15.15,0,0,1-.19.16L201.35,60.4l22.1,9.12a.19.19,0,0,1,.1.24A.18.18,0,0,1,223.38,69.87Z" style="fill:#414042"></path><path d="M105.38,214.92a.15.15,0,0,1-.12,0l-12.7-12.14a.18.18,0,0,1,.25-.27l12.49,11.95,36-118.08a.18.18,0,1,1,.35.1L105.56,214.8a.2.2,0,0,1-.13.12Z" style="fill:#414042"></path><path d="M88,221.06a.17.17,0,0,1-.12,0,.19.19,0,0,1,0-.26l15.61-17.42-10.75-.56a.18.18,0,0,1-.07-.35l10.34-5.22-2.34-18.15V179h0a.27.27,0,0,1,.09-.12l15.23-8.75,3.43-14.27L108.92,158a.19.19,0,0,1-.2-.09.18.18,0,0,1,0-.22l12.81-11.13,7.57-31.49a.12.12,0,0,1,.05-.09h0a.21.21,0,0,1,.15,0h0a.18.18,0,0,1,.07,0l0,0,11.5,14.7,19-16.48L170,70.93a.19.19,0,0,1,.18-.14l39.78-1,9.43-8.2a.21.21,0,0,1,.23,0,.19.19,0,0,1,.06.23l-3.4,7.83,7.1-.17h0a.19.19,0,0,1,.17.1.2.2,0,0,1,0,.2L209.38,85.6l-17.81,41.05,40.19-23.09a.18.18,0,0,1,.2,0,.17.17,0,0,1,.06.19c-.11.36-4.31,13.42-9.65,30l10.73-2.26a.18.18,0,0,1,.21.12.19.19,0,0,1-.09.23L221,138.05c-9.31,29-21.17,65.95-21.37,66.8a.17.17,0,0,1-.14.13.19.19,0,0,1-.18-.06l-26.82-34.28L158.75,202.3a.19.19,0,0,1-.24.1l-17.68-7.1L138.51,205a.18.18,0,0,1-.18.14h0l-30.07-1.58-2.69,11.19c0,.09-.08.13-.19.14a.18.18,0,0,1-.17-.15l-1.45-11.25L88.09,221A.16.16,0,0,1,88,221.06Zm16.15-17.68,1.34,10.35,2.44-10.16Zm4.24-.15,29.36,1.54L117.05,190.5l-3,1.52-4.12,4.6Zm9.09-12.92,20.68,14.3L137,193.77l-14.73-5.91Zm55.22-20.06,26.72,34.16c1.2-3.91,12.31-38.52,21.18-66.13l-43.56,22Zm-35.24,23.68,1,10,2.07-8.73ZM104.2,203l3.77.2,1.44-6Zm-10.82-.56,10.3.54L103,197.6Zm10-5,.67,5.26,5.58-6.23.6-2.48Zm37.57-2.48L158.49,202l13.74-31.68-4.29-5.48-22.58,11.39ZM101,179.42,103.29,197l7-3.54,1.58-6.57Zm9.6,14.33-.51,2.12,3-3.4Zm26.75-.23,3.2,1.28,4.36-18.36-8.83,4.45Zm-14.65-5.88L137,193.36l-1.23-12.29Zm-10.52-.49-1.47,6.13,3.1-1.56,1.9-2.13ZM116,189.8l-1.32,1.47,2-1Zm.24-.28.8.56,4.76-2.4L119,186.53Zm-4-2.75,3.69,2.54,2.63-2.93-5.68-2.27Zm6.94-.53,3,1.22,13.44-6.78-1.16-11.55Zm-17-6.43,9.74,6.73.62-2.57ZM113,183.75l5.85,2.34,15.63-17.45-.83-8.29-17.43,10ZM101.2,179l11.48,4.61,3.12-13Zm33.68-10.24,1.18,11.74,9-4.53,6-25.25Zm16.67-18.61-6.08,25.6,22.24-11.22L155,148.34l-.75.16L151.7,150Zm16.72,14.51,4.13,5.27,4.08-9.41Zm-48.53-8.9-3.39,14.11L133.63,160l-.7-7ZM134,160.15l.81,8.12,15.86-17.71Zm21.42-11.89,12.6,16.1L176.7,160l7.74-17.84Zm-22.15,4.66.69,6.83,17.28-9.93.17-.72Zm51.59-10.86-7.66,17.68,43.48-22,1.13-3.5Zm-63.46,5.15-11.89,10.33,9.91-2.09Zm.48-.41-2.06,8.57,13-2.74-1.42-14.15Zm9.91-8.61,1.44,14.36,18.27-3.84.89-3.74-11.5-14.69Zm20,10.83-.09.38.41-.45Zm.92-.2-.26.29.65-.37Zm0-3.48-.78,3.28.63-.13,1.39-1.56Zm1.47,1.89-1,1.13,1-.21.52-.29Zm36.62-19.71-35.48,20.39,29.31-6.17ZM154.42,147l.57.72L191,127l17.57-40.5Zm-1.61-2.06,1.38,1.77L209.07,85.4l6.65-15.34-5.62.13-49.83,43.28Zm-23.57-28.64-7.19,29.94,9.38-8.15ZM141.19,130l11.33,14.48,7.28-30.64Zm50.13-2.82-6.26,14.43,36.9-7.76c4.79-14.93,8.69-27,9.57-29.78Zm-61.76-11.45,2.21,22,8.92-7.76Zm92.68,18.43q-.53,1.67-1.08,3.36l10.65-5.37Zm-51.91-63-9.91,41.7,49.1-42.65Zm45.79-1.11-6.28,14.48L223,69.88Zm2.9-7.61-8.49,7.38,5.35-.13Z" style="fill:#414042"></path><path d="M350.58,214a.18.18,0,0,1-.16-.08L333.74,188c-16.57,16.54-17.18,16.36-17.43,16.26a.22.22,0,0,1-.15-.21c0-.69-2.1-20-4.48-42.12L287.6,204.34a.15.15,0,0,1-.16.09.18.18,0,0,1-.16-.1L271.7,173.18l-16.31,37.95a.18.18,0,0,1-.17.12h0a.19.19,0,0,1-.17-.12L234.26,161.8a.17.17,0,0,1,0-.18l19-25.33-14.69-29.37-7.13-1.71a.17.17,0,0,1-.14-.18l.09-12.46-3.94-7.89a.19.19,0,0,1,.06-.23l4-2.82.08-9.88-8.22-1.88a.2.2,0,0,1-.14-.14l-2.64-11.22L215.23,57a.18.18,0,0,1-.12-.23.17.17,0,0,1,.22-.12l5.13,1.47-.2-.85a.18.18,0,0,1,.14-.22.19.19,0,0,1,.22.14l.25,1,10.78,3.09,0-2.12a.17.17,0,0,1,.11-.16.17.17,0,0,1,.19,0l3.64,3.39,16.31,4.68,2.83-2a.18.18,0,0,1,.26,0l2.25,3.49L275,73.75a.1.1,0,0,1,.07,0L286.62,84l5.1,1.17a.18.18,0,0,1,.13.11.19.19,0,0,1,0,.18l-1.41,1.88,12.9,11.37,1.27-3a.19.19,0,0,1,.35.06c.05.48.23,2.16.51,4.77l13.05,11.49,0,.06,8,15.55,3.81.92a.17.17,0,0,1,.13.1.2.2,0,0,1,0,.17l-1.74,3,17.12,33.13,5.39,5a.21.21,0,0,1,.05.13.13.13,0,0,1-.05.13l-1.74,1.79,11.9,23a.15.15,0,0,1,0,.17l-10.67,18.6A.17.17,0,0,1,350.58,214ZM334,187.77l16.56,25.7,10.48-18.24-11.8-22.85c-3,3.07-9,9.11-14.93,15.07Zm-99.38-26,20.6,48.85,16.26-37.85-18.05-36.09Zm77.37-.34c2.3,21.49,4.33,40.44,4.51,42.49,1.24-.64,8.57-7.75,17-16.18l-19.39-30.1Zm-40.11,11.33,15.56,31.12,24.17-42.53c-.33-3-.66-6.09-1-9.16L292.7,124.33Zm42.46-15.47,19.46,30.19c5.06-5.06,10.5-10.56,15.26-15.42l-3.5-6.77L322.18,143.5Zm-60.66-20.94,18,36L292.46,124l-3.12-4.84-19.28-4.63ZM346.36,166l3,5.76,1.53-1.57Zm-24-22.84,22.71,21.14-16.53-32Zm-11.28,9.68c.28,2.67.57,5.32.85,7.94l2-3.51ZM311,152l3.14,4.88,7.77-13.68L308.72,131C309.45,137.72,310.22,144.91,311,152Zm-18.12-28.12,17.68,27.44c-.76-7.05-1.52-14.13-2.24-20.76l-10-9.33-3.87-.93Zm15.79,6.51,13.43,12.49,6.25-11-2-3.91-18.4-4.42C308.16,125.79,308.41,128.08,308.66,130.43ZM239,107,253.5,136l16.17-21.58Zm87.75,21.09,1.76,3.41,1.5-2.63ZM299,121.44l9.24,8.6c-.24-2.24-.48-4.43-.7-6.55Zm8.87,1.76,18.21,4.37-7.87-15.24L305.5,101.12Zm-18-4,2.78,4.31,1.42-3.3Zm8.61,1.69,9,2.18c-1-9.5-1.89-17.52-2.41-22.35l-1.64-1.45-8.07,18.76Zm-3.9-.93,3.18.76-2.51-2.33Zm-5-1.2,4.63,1.11.75-1.75-14.46-13.45Zm-19.27-4.63,18.75,4.5-9.65-15-.74-.69Zm9.38-10.71,15.42,14.35,8.06-18.76-13-11.43-11.14,14.86Zm-40.86,3.15,31.09,7.46,8.48-11.31-28.91-26.9-7-1.6-10.66,7.56-.09,10.67Zm-7.16-1.72,6.7,1.61-6.6-13.21ZM250.2,76l28.4,26.43L263.54,79.08Zm13.85,3.17,14.79,23,11.08-14.77-3.47-3ZM303.6,99l1.43,1.27c-.18-1.71-.32-3-.39-3.68ZM227.85,84.66l3.55,7.11.08-9.69Zm59.35-.16,2.94,2.59,1.22-1.64Zm-23.44-5.75,22.12,5.07-11.05-9.73-17.27-5Zm-31.83-6.91-.08,9.53L242,74.15Zm17.73,3.68,13.59,3.12L257,69l-5-1.45-6.19,4.39ZM242.9,74l6,1.39-3.46-3.22Zm-11-2.51,10.5,2.4,2.79-2-9.79-9.11-3.42-1ZM236.2,63l9.32,8.67,6-4.27Zm-12.67,6.54,8,1.84.08-9.69L221,58.62Zm28.84-2.28,4.36,1.25-1.92-3ZM232,61.42l2.83.81L232,59.61Z" style="fill:#414042"></path><path d="M272.53,206.83a.18.18,0,0,1-.16-.1L233.08,132l-94.63,73.13a.2.2,0,0,1-.26,0,.19.19,0,0,1,0-.26L233,131.58a.23.23,0,0,1,.16,0,.23.23,0,0,1,.12.1l38.92,74L254.69,65.44,219.5,62a.18.18,0,0,1-.17-.2.17.17,0,0,1,.2-.16l35.35,3.5a.18.18,0,0,1,.16.16l17.67,141.37a.18.18,0,0,1-.13.2Z" style="fill:#414042"></path><path d="M255.22,211.25a.19.19,0,0,1-.13-.06L235.4,190.57a.18.18,0,0,1,0-.23.17.17,0,0,1,.22-.06l36.84,16.13,45.76-94.28a.18.18,0,0,1,.33.16l-45.84,94.44a.18.18,0,0,1-.24.08L236.29,191l19.07,20a.18.18,0,0,1,0,.25A.16.16,0,0,1,255.22,211.25Z" style="fill:#414042"></path><path d="M255.22,211.25l-.08,0a.18.18,0,0,1-.09-.13l-5.15-23-14.34,2.51a.17.17,0,0,1-.21-.14.19.19,0,0,1,.15-.22l14.32-2.5L231.3,105.07a.18.18,0,0,1,.07-.19l43.44-31.11a.18.18,0,0,1,.26,0,.18.18,0,0,1,0,.25l-43.35,31,18.5,82.58L351.1,170h0a.21.21,0,0,1,.18.13.18.18,0,0,1-.11.22l-95.9,40.87Zm-5-23.2,5.1,22.76,94.24-40.16Z" style="fill:#414042"></path><path d="M272.53,206.83a.16.16,0,0,1-.14-.07l-38.1-44.91a.18.18,0,0,1,0-.26.19.19,0,0,1,.26,0l38.1,44.92a.19.19,0,0,1,0,.25A.21.21,0,0,1,272.53,206.83Z" style="fill:#414042"></path><path d="M340.64,147.74a.21.21,0,0,1-.15-.07l-49-62.22a.19.19,0,1,1,.29-.23l49,62.22a.19.19,0,0,1,0,.26A.21.21,0,0,1,340.64,147.74Z" style="fill:#414042"></path><path d="M369.36,222.47h0a.2.2,0,0,1-.16-.21l9.44-56.62-19-16.76-8.31,21.35-.55,43.6a.17.17,0,0,1-.15.17.21.21,0,0,1-.21-.12l-19.32-61,1.27,54.65a.16.16,0,0,1-.14.18.17.17,0,0,1-.21-.1L280.28,86.9l-9-7.59-38,52.52a.19.19,0,0,1-.26,0,.18.18,0,0,1,0-.25l38-52.55L254.74,65.41,245,60.62l-13.19-1.24a.17.17,0,0,1-.16-.19.18.18,0,0,1,.17-.18l9.57-.55h0l.08,0,3.61,1.78L263.16,62h.07l8.95,5.2,13.07,1.59h0l.05,0h0L313,84.74l6.89-.14h0a.19.19,0,0,1,.18.14l1.12,4.73,33.4,19.27a.12.12,0,0,1,0,.05l8.92,11.52,5.75,3.34a.19.19,0,0,1,.08.23l-1,2.63,9.91,12.8,4.79,1.07a.19.19,0,0,1,.14.21l-.7,4.18,20.18,26a.16.16,0,0,1,0,.09l1.73,17L415.87,198a.23.23,0,0,1,.06.16.21.21,0,0,1-.1.14l-9.94,5.34a.2.2,0,0,1-.17,0,.2.2,0,0,1-.1-.15l-1.57-15.43-25.12-22.17-9.39,56.39A.18.18,0,0,1,369.36,222.47Zm-38.31-70.86,19.36,61.08.54-42.5a.13.13,0,0,1,0-.06l8.37-21.51-20-17.63-8.83-2ZM280.91,87.43,332,206.62l-1.29-55L321,121.18Zm123.54,101L406,203.22l9.47-5.08ZM379,165.5l25,22.06L402.31,171l-19.93-25.74Zm-19.25-17,18.92,16.7,3.39-20.34L378,139.64l-13.62-3Zm-38.22-26.89,9.11,28.74-.5-21.5Zm18.56,9.53,19.37,17.1L364,136.51Zm38.48,8.61,3.58,4.62.61-3.68Zm-14.05-3.52,13.14,2.94-9.51-12.27Zm-25-5.59,24.64,5.51,3.73-9.59-4.63-6L323,97.15l5.7,23.92Zm-9-2,8.31,1.86-10-8.79ZM321.33,121l8.69,7.31-1.67-7-9.61-8.48Zm42.78.11,3.95,5.09.89-2.28Zm-45.74-9a.19.19,0,0,1,.12,0l9.72,8.58L322.54,96.9,302.6,85.3l-10.92.22h0a.19.19,0,0,1-.17-.12l-3.34-8.49-8.61-5L275.16,74l5.43,12.68,40.22,33.84-2.62-8.26a.2.2,0,0,1,.07-.21A.23.23,0,0,1,318.37,112Zm4.49-15.37,39.81,23.16L354.32,109,321.26,90ZM303.31,85.29l19.11,11.12-1.6-6.71-8-4.6Zm10.25-.2,7.15,4.12-1-4.24ZM271.47,79l8.5,7.15-5.09-11.87Zm17.2-1.81,3.13,8L302,85Zm-.21-.55,14.24,8.29,9.54-.19L285.59,69.37Zm-33-11.12,15.75,13.25,3.49-4.84L267.76,67Zm24.5,6.17,8,4.66-2.82-7.16Zm-11.59-4.61L275,73.7l4.21-2-7.11-4.13Zm4.63.56,6.58,3.83,5-2.42Zm-5.05-1,3.33.4-7-4.06Zm-12.31-1.49,11.72,1.42-4.24-4.25ZM246,60.72l8.84,4.35,7.47-2.82Zm-11.77-1.48,9.83.92-2.71-1.33Z" style="fill:#414042"></path><path d="M369.36,222.47a.15.15,0,0,1-.13-.05l-21.77-21.14-15.22,6.45a.17.17,0,0,1-.18,0,.19.19,0,0,1-.07-.17l1.18-8.34-30.61,4.13a.18.18,0,0,1-.16-.06.17.17,0,0,1,0-.15l3.1-17.8-17.87,19.06a.2.2,0,0,1-.21,0,.18.18,0,0,1-.11-.17l1.59-44.71-4.65-2.3L237,219.09a.17.17,0,0,1-.22,0,.18.18,0,0,1-.1-.21l19.82-75.44-23.4-11.6a.18.18,0,0,1-.1-.22l10.33-31.59-15.8-15.35a.18.18,0,0,1-.05-.18.17.17,0,0,1,.13-.13l22.49-5.08.27-.8-27-8.68a.18.18,0,0,1,0-.35l31.48-4.42a.2.2,0,0,1,.17.06.19.19,0,0,1,0,.18l-4.24,13,1.61.52,22.48-5.07H275l.45.11c3.9.72,28,2.44,28.23,2.46a.18.18,0,0,1,.17.17l.25,4.29,15.81,3.83a.11.11,0,0,1,.09,0l80.58,85.41a.2.2,0,0,1,0,.26.18.18,0,0,1-.26,0L319.74,85l-15.65-3.79.84,14.66a.18.18,0,0,1-.24.18l-8.26-2.65,15.39,27.13,6.4-8.38a.19.19,0,0,1,.22-.06.2.2,0,0,1,.11.2l-2.68,15.38,16.28,28.71,8.35-8.9a.19.19,0,0,1,.32.15l-2.72,19.24,13.21,23.28,10,5a.15.15,0,0,1,.08.08h0a.24.24,0,0,1,0,.12h0v0h0a.19.19,0,0,1-.08.07s0,0,0,0l-5.65,2.4,13.84,24.4a.19.19,0,0,1,0,.24Zm-21.53-21.35,20.73,20.15-13.23-23.33Zm-91-57.47-19.57,74.49,46.65-61.07Zm76.75,55.5-1.14,8.12L347.18,201l-3.34-3.24Zm-44.33-39.43-1.57,44.05,17.93-19.1,2.69-15.5Zm16.7,25.12-3.15,18.09,30.46-4.1,1.41-10-13.82-13.42-4.12-2Zm38.4,12.86,3.24,3.15,7.6-3.23-.72-1.28ZM335,189.13l-1.36,9.65,9.91-1.34Zm19.86,7.15.67,1.2,4.44-1.88Zm-19.8-7.6,9,8.7L354.23,196,351,190.37l-15.2-7.53Zm16.61,2,3,5.28,6-.81Zm-15.73-8.2,14.82,7.35L338,167.42Zm-14-6.54,12.82,12.45.8-5.7Zm-13.27-6.58L306,184.18l10.33-11ZM321,175.09l14.52,7.2,2.17-15.4-5.64-9.95L317.9,172.05Zm-4.08-2,3,1.49-2.3-2.24ZM308.67,169l7.94,3.94.78-.84-7.92-7.69Zm.88-5,8.09,7.86,14.25-15.19-16.12-28.42Zm-20.33-4.62,19.11,9.47.82-4.73-17.31-16.82-2.29,3Zm43.12-2.66,5.47,9.64,2.57-18.2ZM292.06,147l17.17,16.68,6.26-35.94-3.72-6.55Zm-7.63,10,4.43,2.2.3-8.4Zm-27.54-13.65,27.2,13.49,5.1-6.67.18-5.26-26.2-25.46Zm32.84,1.9-.16,4.42,2-2.62Zm0-.49,2.05,2,19.78-25.89L295.91,93.18l-4.28-1.37ZM263.27,119l26.12,25.37,1.88-52.66-19.21-6.17Zm-29.91,12.65,23.19,11.5,6.31-24-19.28-18.74ZM312,120.83l3.57,6.29,2.48-14.2ZM243.71,100,263,118.69l8.75-33.28L252.38,79.2l-2,.46ZM228,84.7l15.43,15,6.52-19.94Zm68.18,8.18,8.39,2.69-.83-14.5L275.28,74.2l-.23,0-2.89,11,19.12,6.14.21-6a.19.19,0,0,1,.14-.17.16.16,0,0,1,.2.08Zm-4.52-1.45,4,1.28L291.84,86ZM253.08,79l18.73,6,2.86-10.88Zm25.55-4.41,25.07,6.06-.23-4C301.54,76.53,286,75.42,278.63,74.63Zm-27.95,4-.2.6,1.21-.27ZM224.2,69.76l26.24,8.43,4.15-12.7Z" style="fill:#414042"></path><path d="M392.73,202h0a.19.19,0,0,1-.17-.15l-5.79-36.37c-4.67-1.68-10-3.59-15.23-5.52-31-11.33-31.06-12.11-31.07-12.44-.06-1.18,7.29-21.17,11.3-32l-7-5.62-26.42,2.42c-.07,0-.15,0-.18-.11L303.47,76.57a.19.19,0,0,1,.06-.22.2.2,0,0,1,.23,0l41.15,33.23,9.52-.87a.15.15,0,0,1,.16.07.17.17,0,0,1,0,.17l-2.43,6.51,30.9,24.95a.19.19,0,0,1,.07.11l3.93,24.73c5.38,1.93,10.66,3.8,15.46,5.5a.2.2,0,0,1,.12.23l-9.76,30.92A.19.19,0,0,1,392.73,202Zm-5.57-36.38,5.63,35.4,9.47-30C401.19,170.67,395.09,168.51,387.16,165.66Zm-35.1-49.83c-4.54,12.26-11.29,30.69-11.24,31.72.65,1,24.06,9.73,45.88,17.56l-3.89-24.45Zm-6.74-5.91,6.57,5.31,2.28-6.12ZM304.08,77.09,318.48,112l25.91-2.38Z" style="fill:#414042"></path><path d="M382.62,206c-.32,0-1.61-1-11.7-12.56l-9.63,2a.18.18,0,0,1-.19-.08.18.18,0,0,1,0-.21l5.41-6.72-.08-.1c-7.69-8.86-15.37-17.89-15.45-18a.21.21,0,0,1,0-.2.19.19,0,0,1,.16-.11h0l25.33.37c-1-5.86-1.92-11.87-2.84-17.55l-33-5.09a.18.18,0,0,1-.15-.18l-1.17-25L304.63,96l0,0h0v0L285.08,69.06a.19.19,0,0,1,0-.26.2.2,0,0,1,.26,0l19.46,26.81,33.41.36a.18.18,0,0,1,.18.18l.39,8.41,15.67,4.12a.18.18,0,0,1,.13.22.17.17,0,0,1-.22.13L338.84,105l.81,17.44,33.2,25.5c-2.06-12.79-3.68-22.94-3.86-24.08a.19.19,0,0,1,.13-.21.2.2,0,0,1,.22.1l13.88,30.21,9.91,1.53a.19.19,0,0,1,.14.12.17.17,0,0,1,0,.18l-3.9,4.84,13.25,10.18a.18.18,0,0,1,.06.2.17.17,0,0,1-.17.13h0L391,171l7.59,16.51c5.86-1.17,10.25-2.05,11-2.16a.15.15,0,0,1,.16,0,.18.18,0,0,1,.05.16l-3.87,18a.18.18,0,0,1-.16.15h0a.17.17,0,0,1-.16-.11l-7.22-15.71c-5.4,1.08-12,2.42-18.11,3.66,1.32,8,2.28,13.53,2.47,14.13.07.21,0,.29-.08.32Zm-11.29-12.64c5.49,6.26,9.85,11.11,11,12.11-.31-1.43-1.21-6.67-2.41-13.87Zm27.45-5.57,7,15.14,3.69-17.24C408.21,185.92,404.11,186.74,398.78,187.8Zm-32,.88-5,6.27,8.92-1.82Zm.24-.29c1.39,1.61,2.76,3.17,4.06,4.66l8.83-1.8c-.77-4.61-1.65-10-2.58-15.68Zm10.62-13.21c.94,5.81,1.85,11.3,2.63,16l18-3.64L390.63,171l-9.49-.14Zm-26.09-4.79c4.62,5.42,10.13,11.85,15.22,17.72l10.48-13c-.23-1.43-.47-2.88-.7-4.34Zm25.37.36c.21,1.33.43,2.64.64,3.95l3.14-3.9Zm14-.17,11.07.16-12.82-9.85L387.4,163Zm-9.44-.13,9,.13-3.31-7.23Zm-4.59-.07,4.13.06,6-7.46-2.65-5.78-4.43-3.4-5.87-.91C374.93,158.56,375.89,164.54,376.84,170.38Zm8.1-12.7,2.29,5,1.6-2Zm-.33-.72,4.45,3.42,3.7-4.59-9.35-1.45Zm-4-3,3.34,2.56-1-2.2Zm-.61-.47,2.75.43L369.56,125.1c.53,3.27,2,12.28,3.71,23.15Zm-6.08-.94,5.33.83-5.94-4.56C373.55,150,373.75,151.25,374,152.51Zm-33.15-5.11,32.76,5c-.22-1.35-.43-2.69-.64-4L339.67,122.9ZM305.58,96.24l33.69,25.89-.8-17.24Zm.64-.21,32.23,8.47-.38-8.12Z" style="fill:#414042"></path><path d="M374.33,214.19a.18.18,0,0,1-.15-.08l-13.07-18.77a.36.36,0,0,1,0-.09l-1.52-19.31a95.33,95.33,0,0,1-8.56-5.62.2.2,0,0,1,0-.26.18.18,0,0,1,.26,0,89.38,89.38,0,0,0,8.24,5.41l-5.22-66.23-23.84,19.66a.19.19,0,0,1-.26,0,.19.19,0,0,1,0-.25l24.12-19.88a.17.17,0,0,1,.19,0,.21.21,0,0,1,.11.15l5.27,66.85c6,3.71,14.31,8.73,22.22,13.47l10.81-33.6a.17.17,0,0,1,.18-.13.18.18,0,0,1,.17.14L406,203.47a.18.18,0,0,1-.07.19.18.18,0,0,1-.2,0c-1-.57-11.69-6.91-23.39-13.92l-7.82,24.31a.18.18,0,0,1-.15.13Zm-12.9-19,12.84,18.43,7.73-24c-7.82-4.69-16.05-9.66-22.06-13.38Zm21-5.78c10.92,6.54,21,12.51,23.07,13.74L393.08,156.3Z" style="fill:#414042"></path><path d="M421.08,209.4H421c-.6-.22-6.67-8.22-15.28-19.87L392.86,202a.19.19,0,0,1-.17,0l-31.47-6.63a.18.18,0,0,1-.14-.22.18.18,0,0,1,.21-.14l31.39,6.61,12.85-12.43c-23.35-31.61-65-89.59-67.43-92.93a.18.18,0,0,1,0-.25.19.19,0,0,1,.25,0l71.42,89.28a.2.2,0,0,1,0,.25l-3.8,3.66c8.64,11.7,14.53,19.47,15.15,19.78a.18.18,0,0,1,.1.24A.17.17,0,0,1,421.08,209.4ZM342.56,101.88c18.86,26.21,46.25,64.09,63.23,87.1l3.63-3.52Z" style="fill:#414042"></path><path d="M338.25,96.38h0L291.63,85.51a.17.17,0,0,1-.13-.22.18.18,0,0,1,.22-.13L338.29,96a.18.18,0,0,1,.14.22A.19.19,0,0,1,338.25,96.38Z" style="fill:#414042"></path><path d="M209.65,330.26h0a.18.18,0,0,1-.15-.2l3.65-32.61-3.65-27.89v-.05L212,251.9l-1.73-14.11v-.06l2.34-11.43-2.34-18a.19.19,0,0,1,.14-.2.17.17,0,0,1,.21.11l3.65,10,1.75-8.6c.88-2.31,11.31-123.74,11.41-125a.17.17,0,0,1,.2-.16.18.18,0,0,1,.17.19c-.43,5-10.54,122.71-11.43,125l-1.86,9.15,1.86,5.1a.11.11,0,0,1,0,.08l-1.95,13.57,1.51,11.64a.18.18,0,0,1-.16.2.17.17,0,0,1-.2-.16l-1.34-10.33-1.87,13,3.25,26.49-2.13,19.05,1.76,13.5s0,.05,0,.07l-5.42,19.12A.18.18,0,0,1,209.65,330.26Zm3.67-31.3-3.24,28.94,4.8-16.95Zm-3.48-29.43,3.45,26.4,2-17.54-3.08-25.11Zm.8-31.76,1.56,12.75,1.86-13-1.31-10.14ZM213,226.31l1.28,9.89L216,224l-1.64-4.5Zm-2.14-16.45,2,15.33,1.3-6.36Z" style="fill:#414042"></path><path d="M214.85,330.66a.19.19,0,0,1-.18-.15L209.47,299v0h0v0h0l3-24.67-3-4.61a.16.16,0,0,1,0-.15l6.1-20.32a.19.19,0,0,1,.22-.13.19.19,0,0,1,.14.2l-3.06,24.92,2.71,4.16a.19.19,0,0,1,0,.15l-5.76,20.45,5.39,12a.18.18,0,0,1-.09.24.19.19,0,0,1-.25-.09l-4.84-10.76,5,30.17a.18.18,0,0,1-.15.21Zm-2-55.94-2.68,21.85,5.11-18.13Zm-3-5.22,2.72,4.18,2.74-22.36Z" style="fill:#414042"></path><path d="M175.45,411.47a.16.16,0,0,1-.1,0,.2.2,0,0,1-.08-.12L171.48,394l-13.73-7.56a.19.19,0,0,1-.07-.25.18.18,0,0,1,.25-.07l13.8,7.6a.18.18,0,0,1,.09.12l3.77,17.22L209.43,403l-4.15-15.82a.28.28,0,0,1,0-.09l11.81-53.21a.18.18,0,0,1,.21-.14.18.18,0,0,1,.14.22l-11.79,53.17,4.19,16a.24.24,0,0,1,0,.14.21.21,0,0,1-.11.08l-34.21,8.2Z" style="fill:#414042"></path><path d="M206.06,350a.18.18,0,0,1-.16-.1.2.2,0,0,1,.09-.25l10.45-4.73a.19.19,0,0,1,.25.09.18.18,0,0,1-.09.24L206.14,350Z" style="fill:#414042"></path><path d="M205.45,387.27a.18.18,0,0,1-.17-.13.17.17,0,0,1,.12-.22l11-3.6a.19.19,0,0,1,.23.11.18.18,0,0,1-.12.23l-11,3.6Z" style="fill:#414042"></path><path d="M199.65,410.47h-.08c-3.18-1.58-19.09-9.51-19.49-10.28a.21.21,0,0,1,.08-.25.2.2,0,0,1,.25.07c.47.62,11.66,6.32,19.17,10.05l16.74-27.4a.17.17,0,0,1,.25-.06.19.19,0,0,1,.06.25l-16.82,27.55A.21.21,0,0,1,199.65,410.47Z" style="fill:#414042"></path><path d="M157.84,386.47a.18.18,0,0,1-.18-.14.18.18,0,0,1,.14-.22l10-2.2a.18.18,0,0,1,.07.36l-10,2.2Z" style="fill:#414042"></path><path d="M167.05,406.07h0a.17.17,0,0,1-.17-.13l-2.46-9.07-3.1,1.19a.19.19,0,0,1-.24-.1.2.2,0,0,1,.11-.24l3.13-1.2-5.64-20.78a.19.19,0,0,1,.13-.23.18.18,0,0,1,.22.13l5.63,20.75,6.93-2.67a.19.19,0,0,1,.24.24l-4.6,12A.18.18,0,0,1,167.05,406.07Zm-2.3-9.33,2.33,8.56,4.25-11.09Z" style="fill:#414042"></path><path d="M209.65,403.28a.19.19,0,0,1-.1,0l-9.4-6.41a.18.18,0,0,1-.05-.25.17.17,0,0,1,.25,0l9.17,6.24,7-37.84-10,4.59a.18.18,0,0,1-.24-.09.17.17,0,0,1,.09-.24l10.3-4.74a.19.19,0,0,1,.26.2l-7.11,38.47a.16.16,0,0,1-.11.13Z" style="fill:#414042"></path><path d="M186.85,413.28h-.06l-5.58-2-5.76.23h0a.12.12,0,0,1-.08,0h0l-4-3.78-4.07-1.49a.54.54,0,0,1-.25,0,.27.27,0,0,1-.11-.18l-2.11-4.47L161.12,398l0,0s0-.05,0-.08l-.61-5.63-2.77-5.91a.2.2,0,0,1,0-.15l1.7-3.92-.71-6.59a.23.23,0,0,1,0-.14.2.2,0,0,1,.13-.06l3.65-.37,1.8-4.13a.22.22,0,0,1,.18-.11.18.18,0,0,1,.16.14l1,3.79,3.22-.32a.21.21,0,0,1,.16.06.18.18,0,0,1,0,.17l-1.91,5.82L168,384a.13.13,0,0,1,0,.06l-.53,14.33,12.77,1.48h0a.19.19,0,0,1,.1,0,.1.1,0,0,1,0,.05l3,6,7.3-4.65a.19.19,0,0,1,.23,0l3.67,3.67,5.28-5.28.14-3.07a.18.18,0,0,1,.15-.17l3.66-.71,5.55-5.54-4.09-3a.18.18,0,0,1-.05-.23l5.58-11.08-4.57-6.45a.22.22,0,0,1,0-.18l2.31-5.56-2.7-13.86a.17.17,0,0,1,0-.07h0a.11.11,0,0,1,0-.08l2.72-3.88-2.37-11.72a.2.2,0,0,1,.08-.19h0l.07,0h0l10.8-.2h0a.2.2,0,0,1,.17.09.21.21,0,0,1,0,.19l-4.69,6.68,3.94,4.31a.2.2,0,0,1,0,.2l-3.33,8c2,5.75,3.59,10.73,3.58,11.43a.19.19,0,0,1,0,.08L214,370.5l2.62,12.95a.17.17,0,0,1,0,.1l-2.44,7,.64,3.29v0h0a.08.08,0,0,1,0,0,.14.14,0,0,1,0,.06h0l-2.89,3.16-2.07,6a.22.22,0,0,1-.1.11l-5.67,2.49-4.27,4.66h0l-.06,0h-.06l-7,.3-5.69,2.49h-.07ZM186,411l.89,1.75,1.86-1.86Zm-3.84.16,4.31,1.56-.87-1.71Zm7.13-.3-1.63,1.64,3.94-1.73Zm-11.49-.9-1.69,1.08,4.18-.17ZM172.17,408l3.21,3,.69-1.61Zm6,1.81,3.07,1.11,4.16-.17-2.13-4.19Zm-1.78-.27-.57,1.33,1.53-1Zm7.19-3.18,2.22,4.37,3.31-.14,5.25-5.25-3.57-3.57Zm11-.76-5,5,2.85-.12,4.85-2.12Zm3,3-4.13,1.81,5.7-.23Zm.35-.15,1.48,1.47.09-2.16Zm2-.86-.1,2.26,3.37-3.69Zm-23.4,1.62,1.21.44,5.37-3.42-2.88-5.66Zm-5.06-1.84,4.72,1.71,3.66-8.54c-2.34,1.19-7.33,3.7-10.38,4.94Zm23.41-2,2.83,2.83,1.86-.82.31-7Zm5.38-5.38-.32,7.23,3.87-1.7,7.74-8.46.86-2.47-8.38,1.63ZM167.9,406l2.73,1-1.51-1.42C168.65,405.76,168.24,405.91,167.9,406Zm-.67-.24.11,0a8.11,8.11,0,0,0,1.5-.5l-1.54-1.45Zm.09-2.4,1.9,1.79c2.6-1.07,7.11-3.27,10.41-5l-12.14-1.41Zm-1.83-1.22,1.4,3,.06-1.6Zm45.79-4.3-6.61,7.23,4.84-2.12Zm-46.21,3.4L167,403l.15-4.28-3.41-.4Zm-3.3-3.11,2.57,2.42-1.05-2.25Zm38.66-1.3-.11,2.53,3.1-3.11ZM163.53,398l3.61.42.52-14.28-.76-2.9-4.62,14.1Zm-2-.23,1.61.18-1-2.1Zm-.56-4.44.41,3.73.55-1.69Zm51.92,1.13-.65,1.87,1.94-2.12Zm-3.12-3.95-5.2,5.19,8.05-1.56.42-1.22Zm-48.92,1.7,1.24,2.65,4.68-14.28-1.39-5.33-2.61.26-3,6.88Zm52.5.94L213,394l1.22-.24Zm.12-.36.95.71-.43-2.22ZM210,390.21l3.13,2.32.69-2-.67-3.48Zm-52-3.92,2.29,4.87-.88-8.12Zm47.65.74,4,3,3.36-3.36-2-10.26Zm7.76-.28.6,3.1,2-5.67Zm-1.94-9.92,1.86,9.49,2.85-2.85Zm-.17-.88,4.76,6.73L213.74,371l-2.42,4.82Zm-52.3-.1.63,5.78,2.65-6.11Zm6.67-.66,1.23,4.72,1.64-5ZM209,363.77l2.24,11.48,2.42-4.81-2.44-12Zm-2.31,5.57,4.17,5.89-2.11-10.85Zm-42.26,2.31-1.5,3.45,2.34-.24Zm47-13.84,2.45,12.11,2.66-5.27-5.05-7Zm.23-.54,4.75,6.58c-.42-1.64-1.7-5.52-3.28-10.14Zm-5.27-6.66,2.44,12.51,2.22-5.35-.2-1Zm4.8,6,.21.29,1.56-3.74c-.94-2.73-2-5.7-3-8.61l-.95,1.35Zm-4.91-6.8,4.4,6.08-1.95-9.58Zm3.94-5.63c1,2.72,2,5.68,3,8.47l3.13-7.54L212.5,341Zm-3.09-7.66,1.79,8.88.9-1.27C208.89,341.47,208,338.85,207.14,336.54Zm-.21-1.67c.55,1.55,1.76,4.94,3.16,8.91l2.16-3.09Zm-.07-.62,5.61,6.14,4.43-6.32Z" style="fill:#414042"></path><path d="M186.85,413.28h-.06a.18.18,0,0,1-.11-.24l4-11.6a.18.18,0,0,1,.23-.11.18.18,0,0,1,.11.23l-4,11.6A.18.18,0,0,1,186.85,413.28Z" style="fill:#414042"></path></g></svg> 